{"glyphs":{"0":{"ha":558,"x_min":1,"x_max":557,"o":"m 300 583 q 236 601 265 601 q 189 589 211 601 q 143 574 161 574 q 128 571 131 574 q 126 550 126 568 q 156 369 126 478 q 210 244 175 304 q 279 160 244 185 l 304 143 l 321 158 q 374 245 354 189 q 393 364 393 301 q 389 418 393 392 q 300 583 369 549 m 103 818 q 143 831 128 831 q 167 806 167 831 q 165 794 167 799 l 163 775 l 199 782 q 264 790 238 790 q 353 767 306 790 q 483 651 431 729 q 551 469 535 572 q 557 378 557 438 q 549 256 557 300 q 503 122 535 193 q 440 17 471 50 q 384 -29 410 -17 q 319 -42 358 -42 q 245 -26 275 -42 q 169 35 215 -11 q 86 149 122 82 q 19 315 36 243 q 1 504 1 388 q 11 645 1 597 q 51 756 21 693 q 103 818 76 806 z "},"1":{"ha":438,"x_min":1,"x_max":438,"o":"m 174 800 q 210 806 190 806 q 276 774 261 806 q 310 642 285 757 q 372 373 336 517 q 424 193 408 229 q 438 138 438 157 q 437 131 438 136 q 436 122 436 125 q 433 99 435 108 q 429 82 432 90 q 424 69 426 74 q 416 54 422 65 q 406 35 410 43 q 372 -3 386 -3 q 340 14 361 -3 q 249 189 288 53 q 169 536 210 329 l 161 576 l 108 501 q 40 415 54 428 q 25 406 28 407 q 13 414 22 406 q 1 442 1 422 q 49 594 1 478 q 131 776 114 757 q 174 800 140 788 z "},"2":{"ha":775,"x_min":1,"x_max":775,"o":"m 264 808 q 308 811 279 811 q 410 789 365 811 q 476 736 458 765 q 493 649 493 707 l 493 624 q 469 504 489 560 q 340 247 425 374 q 319 215 329 231 q 306 192 310 200 q 303 183 301 183 q 443 223 311 183 q 610 275 575 263 q 689 300 653 292 q 717 304 708 304 q 749 294 729 304 q 771 281 767 286 q 775 257 775 275 q 739 146 775 215 q 699 103 724 115 q 444 23 679 93 q 153 -60 210 -47 q 113 -65 126 -65 q 93 -61 101 -65 l 76 -56 q 57 -40 74 -57 q 40 -19 40 -24 q 22 11 40 -17 q 1 68 1 44 q 92 215 1 110 q 340 606 308 465 q 349 646 349 644 q 317 656 349 649 q 278 660 297 660 q 181 640 231 660 q 101 588 132 619 q 88 567 88 572 l 93 547 q 118 519 103 525 q 138 510 138 514 q 125 493 138 506 q 90 476 108 476 q 24 536 53 476 q 8 593 8 567 q 28 664 8 622 q 264 808 85 781 z "},"3":{"ha":871,"x_min":1,"x_max":871,"o":"m 269 814 q 339 825 314 825 q 397 811 371 825 q 436 780 428 796 q 444 724 444 764 q 390 539 444 646 l 364 483 q 549 501 478 500 q 613 504 601 504 q 689 496 650 504 q 829 436 768 481 q 871 336 871 406 q 822 168 871 263 q 672 8 775 76 q 447 -98 578 -54 q 225 -142 317 -142 l 204 -142 q 109 -115 142 -136 q 49 -43 76 -94 q 25 24 25 1 q 40 51 25 42 q 92 65 56 60 q 132 69 118 69 q 176 63 144 69 q 240 56 208 56 q 360 75 299 56 q 483 128 411 92 q 594 194 554 164 q 657 251 628 219 q 686 293 686 282 l 685 296 q 625 307 682 299 q 564 310 586 310 q 221 253 415 310 l 140 229 l 115 250 q 70 309 93 268 q 47 371 47 350 q 122 467 47 390 q 275 653 233 582 l 289 675 l 269 671 q 163 628 225 663 q 64 556 100 593 q 26 531 39 531 q 8 549 17 531 q 1 578 1 565 q 61 683 1 619 q 269 814 151 782 z "},"4":{"ha":619,"x_min":1,"x_max":619,"o":"m 356 811 q 417 818 386 818 q 440 814 440 818 q 451 807 440 807 q 501 629 500 807 q 525 443 503 549 q 601 147 572 229 q 619 47 619 100 q 613 14 619 24 q 599 -19 607 8 q 579 -57 593 -40 q 554 -74 565 -74 q 517 -50 540 -74 q 476 7 494 -26 q 401 228 439 78 l 374 335 l 347 317 q 146 253 251 253 q 76 272 103 253 q 24 338 46 293 q 1 407 1 381 l 1 419 q 74 658 1 472 q 114 771 107 750 q 131 796 121 796 q 140 786 136 796 q 144 757 144 778 q 125 611 144 708 q 104 456 104 503 q 129 400 104 404 l 131 400 q 195 426 147 400 q 268 475 243 451 q 315 531 304 508 l 329 554 l 321 613 q 311 726 311 668 l 311 744 q 319 792 311 781 q 356 811 326 804 z "},"5":{"ha":735,"x_min":1,"x_max":735,"o":"m 628 883 q 683 894 667 894 q 700 888 694 894 q 719 876 708 878 q 735 847 733 875 l 735 839 q 728 800 735 817 q 718 775 718 783 q 706 744 718 767 q 675 716 696 726 q 546 665 654 706 q 175 533 194 533 q 174 521 164 533 q 179 515 175 518 q 324 504 189 508 q 506 485 460 500 q 671 319 671 432 q 642 203 671 269 q 576 103 613 138 q 428 25 521 53 q 225 -3 335 -3 q 100 14 143 -3 q 35 74 57 31 q 1 149 1 133 q 4 165 1 151 q 13 185 7 179 q 42 197 19 190 q 126 210 75 210 q 172 201 161 210 q 260 190 186 190 q 326 194 294 190 q 418 224 369 201 q 488 271 467 246 q 508 300 508 294 q 304 358 508 326 q 202 378 231 368 q 149 408 174 388 q 106 463 125 428 q 88 522 88 497 q 79 563 88 547 q 74 583 74 574 q 96 617 74 600 q 125 639 114 628 q 142 650 136 650 q 368 761 149 650 q 628 883 592 874 z "},"6":{"ha":803,"x_min":1,"x_max":803,"o":"m 578 376 l 619 417 l 585 417 q 278 332 447 417 q 197 301 215 301 q 181 303 188 301 q 153 301 153 307 l 156 296 q 182 267 164 283 q 268 242 214 242 q 300 243 288 242 q 441 285 360 246 q 578 376 522 324 m 296 796 q 346 814 329 814 q 365 790 365 814 q 328 733 365 771 q 236 615 288 690 q 165 490 185 539 q 161 482 164 486 l 160 475 q 161 472 160 472 l 189 490 q 411 582 257 542 q 503 602 478 599 q 593 606 529 606 q 674 603 656 606 q 713 592 692 601 q 785 542 768 564 q 803 476 803 519 q 756 318 803 403 q 747 301 753 313 q 739 288 740 290 q 733 277 738 285 q 726 267 728 269 q 719 258 724 264 q 710 247 715 251 q 700 237 706 243 q 686 222 694 231 q 494 107 610 151 q 276 63 378 63 q 179 78 217 63 q 78 152 126 97 q 11 271 29 207 q 1 339 1 301 q 50 513 1 413 q 163 680 92 597 q 296 796 235 763 z "},"7":{"ha":807,"x_min":1,"x_max":807,"o":"m 526 46 q 511 6 526 32 q 481 -21 496 -21 q 448 -2 469 -21 q 418 33 426 17 q 390 92 394 78 q 385 135 385 106 l 385 171 q 381 239 385 239 q 263 196 372 239 q 143 147 153 153 q 113 139 126 139 q 100 147 100 139 q 172 211 100 160 q 329 311 243 263 l 403 353 l 408 397 q 414 443 414 439 q 429 538 414 465 l 449 625 l 278 539 q 31 429 60 429 q 11 438 19 429 q 1 456 1 447 q 32 486 1 468 q 165 576 61 504 q 275 654 268 647 q 359 715 285 664 q 450 775 433 767 q 540 800 497 800 q 583 790 564 800 q 610 760 608 779 l 610 747 q 588 560 610 686 l 569 447 q 625 479 596 461 q 719 519 681 511 q 756 525 743 525 q 783 518 769 525 q 803 504 800 510 q 807 476 807 499 q 792 413 807 447 q 767 369 776 379 q 740 358 757 358 q 647 333 726 358 q 556 300 568 308 q 544 190 549 296 q 535 69 543 83 q 526 46 526 50 z "},"8":{"ha":846,"x_min":1,"x_max":846,"o":"m 646 388 q 571 392 621 392 q 490 389 513 392 q 407 372 461 385 q 336 361 356 361 q 290 368 318 361 q 279 364 285 369 q 268 346 274 358 q 258 303 258 325 q 288 243 258 269 q 372 213 311 222 q 413 210 400 210 q 543 246 471 210 q 628 302 589 268 q 675 363 667 336 l 682 381 l 646 388 m 196 628 q 168 658 176 640 l 161 674 l 139 649 q 108 604 117 621 q 103 582 103 593 q 124 549 103 561 q 176 536 144 536 q 257 556 218 536 q 351 628 321 586 l 364 646 l 329 643 q 269 628 296 640 q 231 615 244 615 q 196 628 214 615 m 292 819 q 358 828 329 828 q 444 807 400 828 q 510 759 494 782 q 525 686 525 736 q 514 608 525 642 l 504 578 l 692 578 l 740 554 q 821 493 796 528 q 846 406 846 458 q 819 292 846 363 q 761 185 792 222 q 619 87 713 125 q 431 49 526 49 q 175 196 250 49 q 151 282 151 246 q 167 346 151 311 q 181 381 181 378 q 167 388 181 388 q 121 400 150 388 q 74 426 92 413 q 29 482 50 444 q 1 565 1 529 q 58 674 1 617 q 119 724 89 704 q 175 764 144 736 q 223 799 200 789 q 292 819 246 810 z "},"9":{"ha":713,"x_min":0,"x_max":713,"o":"m 236 717 q 242 732 246 732 q 177 672 236 732 q 118 606 118 611 q 121 604 118 604 q 174 644 133 604 q 236 717 215 683 m 321 825 q 379 835 365 835 q 414 824 393 835 q 447 798 432 815 q 503 724 463 781 q 700 379 664 494 q 713 279 713 338 q 700 179 713 221 q 591 12 665 63 q 382 -40 517 -39 q 220 -15 279 -40 q 126 68 161 10 q 94 149 94 122 q 100 169 94 156 q 149 197 110 188 q 186 204 172 204 q 210 197 197 204 q 239 179 232 186 q 374 156 264 160 q 392 155 381 156 q 407 154 403 154 q 464 163 443 154 q 511 196 485 171 q 549 276 549 231 q 451 497 549 346 q 381 603 399 578 l 367 622 l 347 593 q 283 524 325 561 q 210 472 242 488 q 128 454 171 454 q 63 471 83 454 q 24 518 43 485 q 1 575 4 551 q 1 579 1 576 q 0 583 0 582 q 58 685 0 628 q 203 786 117 743 q 321 825 254 813 z "},"\u0000":{"ha":264,"x_min":0,"x_max":0,"o":""},"\r":{"ha":264,"x_min":0,"x_max":0,"o":""}," ":{"ha":264,"x_min":0,"x_max":0,"o":""},"!":{"ha":357,"x_min":1,"x_max":356,"o":"m 11 860 q 33 865 21 865 q 64 853 51 865 q 197 565 88 826 q 260 433 250 440 q 267 413 267 429 q 254 350 267 388 q 226 296 242 313 q 204 283 217 283 q 174 297 192 283 q 86 496 129 332 q 1 843 1 817 q 11 860 1 856 m 228 181 q 262 188 235 182 q 300 194 289 194 q 328 185 308 194 q 353 168 347 175 q 356 150 356 165 q 336 61 356 104 q 264 -36 296 -36 q 256 -35 258 -36 q 197 26 228 -19 q 165 97 165 72 q 186 143 165 110 q 207 171 200 164 q 228 181 214 178 z "},"\"":{"ha":326,"x_min":1,"x_max":326,"o":"m 50 903 q 68 907 58 904 q 83 911 78 910 q 90 913 89 913 l 92 913 q 146 882 108 913 q 160 838 160 871 q 153 807 160 821 q 151 799 151 806 q 172 711 151 778 q 199 589 199 626 q 190 565 199 567 q 185 564 189 564 q 163 582 176 564 q 108 664 150 600 q 1 865 1 829 q 50 903 1 892 m 185 831 q 185 844 185 839 q 187 853 185 849 q 190 858 189 857 q 194 862 190 860 q 201 865 199 864 q 211 867 204 865 q 224 869 218 868 q 257 876 251 876 q 275 869 258 876 q 290 856 286 863 q 293 829 293 850 q 307 717 293 806 q 326 590 326 610 q 322 581 326 581 q 233 711 300 581 q 185 831 185 810 z "},"„":{"ha":326,"x_min":1,"x_max":326,"o":"m 50 903 q 68 907 58 904 q 83 911 78 910 q 90 913 89 913 l 92 913 q 146 882 108 913 q 160 838 160 871 q 153 807 160 821 q 151 799 151 806 q 172 711 151 778 q 199 589 199 626 q 190 565 199 567 q 185 564 189 564 q 163 582 176 564 q 108 664 150 600 q 1 865 1 829 q 50 903 1 892 m 185 831 q 185 844 185 839 q 187 853 185 849 q 190 858 189 857 q 194 862 190 860 q 201 865 199 864 q 211 867 204 865 q 224 869 218 868 q 257 876 251 876 q 275 869 258 876 q 290 856 286 863 q 293 829 293 850 q 307 717 293 806 q 326 590 326 610 q 322 581 326 581 q 233 711 300 581 q 185 831 185 810 z "},"#":{"ha":857,"x_min":1,"x_max":857,"o":"m 365 382 q 351 451 356 451 q 283 431 283 439 q 296 376 283 418 q 313 335 308 335 q 343 347 318 335 q 367 368 367 358 q 365 382 367 376 m 143 783 q 174 775 161 783 q 205 709 185 768 q 239 594 225 650 l 254 540 q 265 542 254 539 q 300 554 276 546 q 340 579 340 569 l 340 583 q 336 676 336 604 l 335 757 l 351 763 q 369 765 365 765 q 406 747 393 765 q 429 672 414 733 l 446 611 l 513 636 q 622 672 593 667 q 658 679 653 679 q 686 669 667 679 q 711 654 706 660 q 717 638 717 649 q 715 624 717 629 q 683 538 710 578 q 631 499 656 499 q 608 504 614 499 q 599 507 606 507 q 542 496 589 507 q 479 478 482 481 l 479 476 q 493 418 479 451 q 496 417 493 417 q 538 428 506 417 q 612 458 569 440 q 660 479 654 476 q 808 525 768 525 q 825 519 821 525 q 843 510 833 511 q 857 476 857 508 q 850 432 857 446 q 843 411 843 415 l 842 407 q 835 394 839 403 q 829 381 832 386 q 804 350 815 351 q 744 338 769 343 q 617 306 704 329 q 526 281 529 283 l 526 279 q 543 217 526 269 q 564 106 564 147 q 557 67 564 83 q 552 58 554 63 q 550 50 550 53 l 550 49 l 549 44 q 544 33 547 40 q 538 18 542 26 q 506 -14 522 -14 q 476 -3 494 -14 q 397 171 421 35 q 382 240 385 238 q 356 235 381 242 q 336 226 340 229 q 335 215 332 222 q 357 165 343 175 q 368 125 368 160 q 358 68 368 88 q 325 -1 336 17 q 301 -19 314 -19 q 274 -7 290 -19 q 230 47 251 8 q 200 125 208 86 q 186 188 199 136 l 142 176 q 89 165 97 165 q 72 181 76 165 q 71 189 71 183 q 129 244 71 214 l 174 268 q 163 335 175 269 q 149 404 151 401 l 147 404 q 100 399 144 404 q 53 394 71 394 q 4 414 13 394 q 1 425 1 422 q 72 467 1 442 q 101 477 86 471 q 125 486 117 483 l 133 490 q 133 507 135 490 q 126 554 131 524 q 117 618 122 585 q 101 757 101 735 q 143 783 101 783 z "},"$":{"ha":853,"x_min":1,"x_max":853,"o":"m 561 349 q 490 356 515 353 l 444 360 l 454 336 q 459 324 457 331 q 463 315 461 318 q 465 309 464 313 q 469 305 467 306 q 474 304 471 304 l 518 318 q 579 343 579 340 q 561 349 579 347 m 232 858 q 240 867 236 867 q 261 831 254 867 q 286 756 264 811 q 319 700 308 700 q 400 722 322 700 q 551 753 497 753 q 586 747 575 753 q 608 721 608 739 q 598 694 608 703 q 553 674 588 686 q 435 624 514 661 q 357 581 357 586 q 364 561 357 572 q 384 549 369 551 q 479 543 399 546 q 712 520 632 538 q 836 465 792 503 q 850 446 847 454 q 853 411 853 438 q 833 315 853 364 q 782 236 814 265 q 610 144 735 189 l 561 128 l 561 103 q 531 8 561 71 q 500 -21 517 -21 q 468 -1 488 -21 q 438 41 457 10 q 413 88 418 72 l 411 88 q 367 81 404 88 q 276 72 317 72 q 235 75 246 72 q 201 93 224 78 q 147 156 172 113 q 122 229 122 199 q 190 292 122 283 q 199 292 193 292 q 207 293 204 293 q 247 287 229 293 q 264 272 264 281 q 289 265 264 265 q 318 267 301 265 q 345 269 335 268 q 356 272 356 271 q 344 318 357 274 l 333 363 l 235 367 q 121 376 156 369 q 64 401 86 383 q 24 456 46 415 q 1 515 1 497 q 31 567 1 544 q 106 607 42 575 q 203 653 169 639 q 223 662 211 657 q 240 669 235 667 q 247 672 246 672 q 246 700 251 675 q 231 846 231 764 q 231 854 231 850 l 232 858 z "},"%":{"ha":872,"x_min":1,"x_max":872,"o":"m 594 818 q 629 842 617 842 l 635 842 q 650 838 647 840 q 653 822 653 835 q 535 592 651 810 q 294 157 418 375 q 244 65 254 86 q 235 25 235 44 q 207 -62 236 -14 q 146 -118 178 -110 l 140 -118 q 68 -50 103 -118 q 50 7 50 -14 q 58 38 50 22 q 262 345 69 60 q 521 724 454 631 q 594 818 565 785 m 154 615 q 133 626 138 626 q 117 608 126 626 q 107 579 107 590 q 108 574 107 575 q 116 567 113 567 q 133 575 119 567 q 164 603 164 593 q 154 615 164 608 m 201 781 q 264 789 239 789 q 322 775 296 789 q 362 744 353 760 q 371 690 371 729 q 346 573 371 633 q 283 476 321 513 q 210 428 254 447 q 129 410 167 410 q 107 413 121 410 q 36 471 71 422 q 1 558 1 519 q 23 625 1 590 q 78 682 44 660 q 113 724 101 699 q 201 781 132 765 m 654 179 q 626 174 642 174 q 585 186 607 174 q 577 188 578 189 q 582 172 576 186 q 608 144 594 144 q 635 154 619 144 q 671 178 658 165 q 676 186 678 186 q 654 179 675 186 m 696 368 q 754 375 726 375 q 810 361 779 375 q 857 329 842 347 q 872 268 872 313 q 832 126 872 196 q 732 26 792 57 q 635 0 679 0 q 549 33 586 0 q 490 163 490 86 q 510 242 490 206 q 569 319 528 278 q 632 367 611 361 q 657 365 651 371 q 696 368 661 361 z "},"&":{"ha":893,"x_min":1,"x_max":893,"o":"m 239 249 q 190 282 193 282 q 178 268 186 282 q 169 246 169 254 q 215 171 169 217 q 346 114 258 128 q 383 110 371 110 q 415 118 397 110 l 442 129 l 397 150 q 239 249 315 192 m 376 757 q 307 768 343 768 q 183 703 226 768 q 168 646 168 681 q 180 583 168 621 q 199 544 192 544 q 256 584 204 544 q 332 647 307 624 q 400 736 389 703 q 399 747 403 744 q 376 757 396 750 m 244 953 q 332 964 297 964 q 461 928 393 964 q 548 859 524 894 q 572 767 572 824 q 522 591 572 678 q 381 438 471 504 q 336 399 336 401 q 435 342 336 389 q 547 294 535 294 q 549 310 549 294 q 547 364 549 342 q 546 407 546 382 q 552 440 546 433 q 579 450 558 447 l 586 450 q 642 416 615 450 q 681 328 668 382 q 689 265 689 283 q 693 242 689 242 q 739 233 694 242 q 789 228 765 228 q 811 229 804 228 q 835 232 831 232 q 858 226 844 232 q 883 215 878 217 q 893 181 893 211 q 885 131 893 150 q 881 122 882 126 q 879 117 879 118 l 879 114 q 875 99 882 114 q 858 69 868 85 q 842 47 847 53 q 774 32 824 32 q 689 43 736 32 q 640 53 651 53 q 632 49 633 53 q 596 7 629 40 q 367 -85 508 -85 q 279 -74 326 -85 q 144 -8 210 -56 q 83 49 104 22 q 35 129 61 75 q 8 190 13 172 q 1 242 3 207 l 1 258 q 47 394 1 322 l 72 431 l 47 478 q 7 643 7 561 q 29 765 7 707 q 108 892 60 851 q 244 953 156 933 z "},"'":{"ha":251,"x_min":1,"x_max":251,"o":"m 1 854 q 42 878 1 878 q 81 858 58 878 q 193 739 103 838 q 251 651 251 676 q 236 603 251 636 q 219 576 225 582 q 201 569 214 571 l 197 569 q 39 769 138 569 q 1 854 1 844 z "},"‚":{"ha":251,"x_min":1,"x_max":251,"o":"m 1 854 q 42 878 1 878 q 81 858 58 878 q 193 739 103 838 q 251 651 251 676 q 236 603 251 636 q 219 576 225 582 q 201 569 214 571 l 197 569 q 39 769 138 569 q 1 854 1 844 z "},"(":{"ha":492,"x_min":1,"x_max":492,"o":"m 110 836 q 140 847 128 849 q 152 842 150 846 q 154 822 154 839 q 135 717 153 781 q 119 589 119 663 q 133 472 119 518 q 210 313 157 390 q 326 188 243 263 q 432 114 410 114 q 467 101 442 114 l 492 89 l 489 50 q 485 18 488 31 q 480 0 482 6 q 472 -18 478 -6 q 461 -42 465 -31 q 432 -79 447 -71 q 418 -83 424 -83 q 390 -74 410 -83 q 304 -15 360 -58 q 210 68 249 29 q 93 226 149 131 q 18 399 38 321 q 1 539 1 464 q 8 621 1 582 q 53 750 22 685 q 110 836 83 815 z "},")":{"ha":508,"x_min":1,"x_max":508,"o":"m 19 865 q 44 869 31 869 q 132 849 83 869 q 354 670 256 792 q 492 407 453 549 q 508 231 508 350 q 500 125 508 158 q 439 -24 475 29 q 388 -80 419 -51 q 343 -108 357 -108 q 267 -26 310 -108 q 247 29 247 13 q 276 74 247 50 q 343 151 328 114 q 358 268 358 188 q 317 478 358 375 q 206 653 282 567 q 51 785 131 740 q 1 842 1 813 q 19 865 1 857 z "},"*":{"ha":700,"x_min":1,"x_max":699,"o":"m 100 807 q 121 814 111 814 q 178 776 142 814 q 363 621 333 621 q 399 686 367 621 q 439 756 432 751 q 490 765 458 765 q 531 758 517 765 q 550 728 550 750 q 538 679 550 711 q 496 621 521 631 q 447 574 483 615 l 410 531 l 440 517 q 622 458 561 463 q 664 451 661 456 q 678 446 667 446 q 699 408 699 446 q 690 364 699 378 q 661 307 668 317 q 640 296 654 297 l 638 296 q 450 406 597 296 q 369 458 378 458 q 358 454 364 458 q 342 435 347 449 q 326 360 338 422 q 311 246 311 274 q 296 181 311 219 q 267 132 281 142 q 251 126 257 125 q 232 139 246 128 q 197 186 217 150 q 176 236 176 222 q 210 326 176 243 q 256 435 243 408 q 263 460 265 451 q 150 475 258 467 q 25 489 49 482 q 1 517 1 496 q 115 560 1 538 q 201 582 201 579 q 145 683 201 590 q 89 792 89 776 q 100 807 89 801 z "},"+":{"ha":532,"x_min":1,"x_max":532,"o":"m 465 586 q 532 538 532 586 q 514 479 532 522 q 486 426 496 436 q 453 413 472 413 q 432 419 442 413 q 410 425 425 425 q 357 419 394 425 q 293 407 293 408 q 322 371 293 403 q 351 317 351 338 q 343 286 351 303 q 334 265 340 281 q 325 243 328 249 q 294 213 313 213 q 251 244 275 213 q 203 324 228 275 q 172 381 178 374 q 160 385 169 385 q 101 376 147 385 q 25 367 46 367 l 21 367 q 1 397 1 372 q 3 407 1 404 q 67 446 6 415 l 128 476 l 99 550 q 65 671 65 631 q 72 692 65 688 q 88 697 79 697 q 139 639 106 697 q 153 615 143 633 q 173 582 164 597 q 189 556 182 567 l 218 511 l 265 529 q 465 586 414 586 z "},",":{"ha":144,"x_min":1,"x_max":144,"o":"m 46 186 q 69 178 56 186 q 131 53 104 158 q 144 -46 144 -3 q 132 -117 144 -86 q 88 -179 106 -179 q 56 -156 76 -179 q 21 -106 35 -133 l 1 -68 l 8 -11 q 13 67 13 21 q 11 111 13 97 l 7 176 l 24 181 q 33 183 28 182 q 41 185 38 183 q 46 186 44 186 z "},"-":{"ha":889,"x_min":1,"x_max":889,"o":"m 703 596 q 765 618 722 606 q 835 631 808 631 q 856 625 850 631 q 875 614 864 617 q 889 585 888 613 l 889 575 q 885 548 889 561 q 875 519 882 535 q 865 496 868 504 q 794 429 850 451 q 542 374 753 414 q 149 306 331 333 q 69 296 71 296 q 46 303 60 296 q 16 337 31 313 q 1 378 1 361 q 3 388 1 385 q 94 434 14 408 q 431 522 175 460 q 703 596 671 581 z "},".":{"ha":215,"x_min":1,"x_max":215,"o":"m 14 199 q 20 204 14 199 q 67 219 26 208 q 136 231 107 231 q 215 179 215 231 q 213 158 215 169 q 207 138 210 146 q 199 119 204 131 q 192 103 194 108 q 170 74 185 83 q 121 60 156 65 q 89 56 99 56 q 60 68 78 56 q 20 116 39 82 q 1 171 1 150 q 14 199 1 190 z "},"/":{"ha":289,"x_min":1,"x_max":289,"o":"m 174 926 q 236 940 226 940 q 258 936 247 940 q 269 932 261 935 q 279 927 276 929 q 285 920 282 925 q 289 907 289 915 q 244 717 289 890 q 157 401 199 544 q 65 117 107 225 q 8 10 24 10 q 4 13 7 10 q 1 26 1 18 q 51 358 1 64 q 114 743 92 589 q 138 892 135 879 q 147 915 143 911 q 174 926 151 919 z "},":":{"ha":444,"x_min":1,"x_max":444,"o":"m 175 642 q 225 650 203 650 q 275 617 275 650 q 265 575 275 604 q 249 539 256 546 q 88 506 242 532 q 39 500 54 500 q 15 507 25 500 q 1 524 1 515 q 76 588 1 540 q 175 642 154 636 m 318 443 q 390 457 364 457 q 426 449 410 457 q 444 418 444 440 q 425 358 444 397 q 390 317 406 319 q 239 306 381 314 l 104 299 l 94 313 q 83 338 83 328 q 111 367 83 353 q 318 443 193 408 z "},";":{"ha":357,"x_min":1,"x_max":357,"o":"m 183 772 q 218 776 197 776 q 268 767 253 776 q 276 738 276 761 q 261 675 276 710 q 239 646 247 646 q 231 647 233 646 q 211 650 217 650 q 108 610 190 650 q 13 571 28 571 l 11 571 q 1 582 1 575 q 82 683 1 603 q 183 772 164 767 m 346 539 q 357 493 357 532 q 349 439 357 464 q 235 224 324 363 q 169 128 186 149 q 140 107 153 107 q 85 152 117 107 q 54 231 54 197 q 97 326 54 263 l 124 369 l 108 383 q 78 425 90 399 q 67 458 67 447 q 80 483 67 472 q 131 511 93 493 q 282 556 219 556 q 346 539 322 556 z "},"<":{"ha":735,"x_min":1,"x_max":735,"o":"m 458 722 q 500 749 486 749 q 508 735 508 749 q 466 656 508 708 q 254 413 424 603 q 171 317 171 319 q 185 313 171 313 q 328 329 211 313 q 593 393 478 349 q 675 410 636 410 q 733 382 725 410 q 735 369 735 379 q 718 300 735 339 q 676 229 694 244 q 596 197 658 214 q 225 144 429 153 q 178 143 208 143 q 77 161 110 143 q 21 226 44 179 q 1 288 1 265 q 35 353 1 315 q 222 519 92 414 q 272 560 256 546 q 309 593 288 574 q 363 639 331 613 q 458 722 444 707 z "},"=":{"ha":883,"x_min":1,"x_max":883,"o":"m 593 694 q 653 708 638 708 q 689 699 671 708 q 710 679 707 690 q 713 664 713 668 q 709 643 713 654 q 700 619 706 632 q 693 601 694 607 q 676 574 689 585 q 650 563 664 563 q 543 539 635 563 q 32 411 60 411 q 10 419 24 411 q 1 428 1 426 q 11 439 1 431 q 286 565 22 449 q 593 694 550 681 m 778 572 q 833 585 821 585 q 865 576 847 585 q 883 558 882 567 l 883 550 q 867 479 883 517 q 831 432 850 442 q 451 351 807 419 q 54 283 96 283 l 51 283 q 32 296 32 286 q 63 325 32 310 q 392 443 83 336 q 778 572 701 550 z "},">":{"ha":667,"x_min":1,"x_max":665,"o":"m 426 733 q 471 738 426 738 q 631 725 608 738 q 665 679 665 704 q 650 622 665 661 q 622 566 633 581 q 567 518 610 551 q 522 481 540 497 q 488 452 503 464 q 429 411 472 440 q 160 206 247 279 q 92 160 104 160 q 21 232 58 160 q 1 290 1 271 q 42 350 1 315 q 201 469 89 390 q 399 601 314 549 q 426 621 426 619 q 343 635 426 624 q 174 661 260 646 q 82 686 88 676 q 88 717 67 708 q 263 725 99 722 q 426 733 426 728 z "},"?":{"ha":896,"x_min":1,"x_max":896,"o":"m 694 1001 q 761 1004 714 1004 q 843 985 813 1003 q 885 950 874 968 q 896 897 896 932 q 846 732 896 831 q 706 533 800 642 q 496 311 657 476 q 324 142 335 146 q 321 141 322 142 q 318 140 319 140 q 263 188 294 140 q 231 272 231 236 q 260 336 231 300 q 417 499 289 372 q 613 700 575 657 q 685 790 654 747 q 717 840 717 832 l 715 842 l 708 842 q 567 810 665 842 q 274 658 426 763 q 63 461 122 553 q 54 433 49 439 q 50 411 68 419 q 39 408 42 408 q 13 426 24 408 q 1 468 1 444 q 3 488 1 481 q 83 628 13 539 q 365 872 194 768 q 694 1001 536 976 m 574 233 q 633 246 614 246 q 667 238 650 246 q 686 206 686 229 q 668 146 686 182 q 629 90 650 110 q 555 30 604 68 q 497 -11 506 -8 l 496 -11 q 463 6 486 -11 q 440 32 440 24 q 426 61 440 38 q 411 110 411 85 q 417 135 411 125 q 476 185 428 156 q 574 233 524 215 z "},"@":{"ha":879,"x_min":1,"x_max":879,"o":"m 388 461 q 383 515 388 503 q 371 513 379 529 q 365 496 369 506 q 350 431 353 460 q 349 406 349 422 q 360 360 349 360 l 361 360 q 379 396 371 363 q 388 461 388 429 m 424 893 q 494 899 456 899 q 711 844 606 899 q 814 773 779 810 q 867 679 849 736 q 879 588 879 644 q 869 501 879 543 q 833 409 858 458 q 789 343 807 360 q 710 315 757 315 q 679 318 699 315 q 611 342 657 322 q 538 381 565 363 l 519 393 l 508 363 q 451 256 483 293 q 383 219 418 219 q 294 296 332 219 q 278 371 278 329 q 344 547 278 460 q 365 588 365 576 q 376 612 365 604 q 421 625 386 619 q 458 629 444 629 q 546 582 489 629 q 613 537 571 560 q 679 507 654 514 l 683 507 q 713 581 713 507 q 701 631 713 617 q 649 665 690 646 q 482 701 576 701 l 457 701 q 390 696 406 699 q 340 675 375 693 q 164 444 193 601 q 157 392 157 403 q 161 353 157 375 q 208 239 172 292 q 290 158 243 186 q 461 119 357 119 q 515 123 500 119 q 567 144 529 126 q 672 211 625 175 q 736 256 721 249 q 790 274 751 264 q 829 281 822 281 q 854 272 838 281 q 872 260 869 265 q 875 236 875 254 l 875 226 q 852 142 875 190 q 799 65 829 93 q 681 -16 750 19 q 550 -65 613 -51 q 454 -75 506 -75 q 200 4 311 -75 q 95 113 144 44 q 22 251 46 181 q 1 385 1 314 q 74 660 1 526 q 257 846 146 793 q 424 893 325 878 z "},"A":{"ha":549,"x_min":1,"x_max":549,"o":"m 200 475 q 135 603 142 603 q 124 463 133 603 q 115 308 115 322 q 163 342 115 304 q 224 392 211 379 q 229 403 229 400 q 200 475 229 411 m 64 846 q 113 853 94 853 q 200 815 164 853 q 392 463 247 765 q 415 407 415 410 q 451 313 415 401 q 497 206 488 225 q 531 147 508 183 q 549 99 549 117 q 547 74 549 83 q 525 -13 544 29 q 488 -56 506 -56 q 454 -36 476 -56 q 415 8 432 -17 q 360 103 393 40 q 313 201 326 165 l 297 242 l 256 219 q 160 178 199 192 q 103 153 104 154 q 90 81 97 147 q 60 -46 78 -24 q 53 -53 56 -51 q 49 -53 51 -54 q 42 -47 47 -51 q 24 -18 32 -37 q 3 457 8 26 q 1 639 1 532 q 7 775 1 735 q 23 826 13 815 q 64 846 33 838 z "},"a":{"ha":549,"x_min":1,"x_max":549,"o":"m 200 475 q 135 603 142 603 q 124 463 133 603 q 115 308 115 322 q 163 342 115 304 q 224 392 211 379 q 229 403 229 400 q 200 475 229 411 m 64 846 q 113 853 94 853 q 200 815 164 853 q 392 463 247 765 q 415 407 415 410 q 451 313 415 401 q 497 206 488 225 q 531 147 508 183 q 549 99 549 117 q 547 74 549 83 q 525 -13 544 29 q 488 -56 506 -56 q 454 -36 476 -56 q 415 8 432 -17 q 360 103 393 40 q 313 201 326 165 l 297 242 l 256 219 q 160 178 199 192 q 103 153 104 154 q 90 81 97 147 q 60 -46 78 -24 q 53 -53 56 -51 q 49 -53 51 -54 q 42 -47 47 -51 q 24 -18 32 -37 q 3 457 8 26 q 1 639 1 532 q 7 775 1 735 q 23 826 13 815 q 64 846 33 838 z "},"B":{"ha":786,"x_min":1,"x_max":786,"o":"m 607 376 q 569 378 583 376 q 561 378 567 378 q 551 379 556 379 q 410 356 494 379 q 254 296 325 332 l 225 282 l 244 258 q 342 183 294 196 q 397 174 375 174 q 463 194 419 174 q 561 270 515 222 q 614 357 607 318 q 607 376 619 376 m 194 579 q 133 572 168 579 q 101 563 104 565 l 101 561 q 114 510 101 553 q 129 465 126 468 l 131 465 q 183 513 142 465 q 224 572 224 560 q 194 579 224 579 m 144 764 q 218 771 175 771 l 235 771 q 326 750 286 769 q 394 699 375 726 q 413 624 413 672 q 403 551 413 606 q 447 560 424 556 q 567 572 517 572 q 694 546 640 572 q 766 491 746 522 q 786 407 786 460 q 753 263 786 346 q 675 129 719 179 q 550 39 625 74 q 407 4 475 4 q 367 8 386 4 q 260 55 315 18 q 168 142 206 92 q 103 249 138 181 q 51 371 68 318 q 15 578 15 482 q 7 643 15 615 q 1 667 1 665 q 7 688 1 671 q 49 733 18 715 q 144 764 79 750 z "},"b":{"ha":786,"x_min":1,"x_max":786,"o":"m 607 376 q 569 378 583 376 q 561 378 567 378 q 551 379 556 379 q 410 356 494 379 q 254 296 325 332 l 225 282 l 244 258 q 342 183 294 196 q 397 174 375 174 q 463 194 419 174 q 561 270 515 222 q 614 357 607 318 q 607 376 619 376 m 194 579 q 133 572 168 579 q 101 563 104 565 l 101 561 q 114 510 101 553 q 129 465 126 468 l 131 465 q 183 513 142 465 q 224 572 224 560 q 194 579 224 579 m 144 764 q 218 771 175 771 l 235 771 q 326 750 286 769 q 394 699 375 726 q 413 624 413 672 q 403 551 413 606 q 447 560 424 556 q 567 572 517 572 q 694 546 640 572 q 766 491 746 522 q 786 407 786 460 q 753 263 786 346 q 675 129 719 179 q 550 39 625 74 q 407 4 475 4 q 367 8 386 4 q 260 55 315 18 q 168 142 206 92 q 103 249 138 181 q 51 371 68 318 q 15 578 15 482 q 7 643 15 615 q 1 667 1 665 q 7 688 1 671 q 49 733 18 715 q 144 764 79 750 z "},"C":{"ha":699,"x_min":1,"x_max":699,"o":"m 389 761 q 458 772 429 772 q 522 753 503 772 q 532 718 532 743 q 522 683 532 696 q 503 685 503 661 q 488 696 503 696 q 423 675 465 696 q 340 622 381 654 q 221 499 279 574 q 149 376 163 425 q 142 328 142 351 q 186 217 142 258 q 278 189 215 189 q 358 206 318 189 q 532 344 461 250 q 558 372 549 367 q 604 385 567 376 q 650 392 633 392 q 665 386 660 392 q 688 375 674 378 q 697 367 696 374 q 699 335 699 361 q 672 241 699 294 q 607 149 646 188 q 278 8 469 8 q 199 17 229 8 q 131 53 168 26 q 81 99 100 74 q 36 172 61 125 q 1 307 1 240 q 121 578 1 439 q 389 761 240 718 z "},"c":{"ha":699,"x_min":1,"x_max":699,"o":"m 389 761 q 458 772 429 772 q 522 753 503 772 q 532 718 532 743 q 522 683 532 696 q 503 685 503 661 q 488 696 503 696 q 423 675 465 696 q 340 622 381 654 q 221 499 279 574 q 149 376 163 425 q 142 328 142 351 q 186 217 142 258 q 278 189 215 189 q 358 206 318 189 q 532 344 461 250 q 558 372 549 367 q 604 385 567 376 q 650 392 633 392 q 665 386 660 392 q 688 375 674 378 q 697 367 696 374 q 699 335 699 361 q 672 241 699 294 q 607 149 646 188 q 278 8 469 8 q 199 17 229 8 q 131 53 168 26 q 81 99 100 74 q 36 172 61 125 q 1 307 1 240 q 121 578 1 439 q 389 761 240 718 z "},"D":{"ha":901,"x_min":1,"x_max":901,"o":"m 457 589 q 364 596 426 592 l 326 599 l 354 561 q 483 363 417 476 q 550 231 550 250 q 553 222 550 222 q 585 244 557 222 q 665 319 622 274 q 729 399 708 365 q 765 492 765 456 q 764 501 765 499 q 725 527 761 510 q 651 556 689 544 q 457 589 557 583 m 297 681 q 496 693 376 693 q 692 679 624 693 q 819 630 764 665 q 892 551 874 594 q 901 482 901 526 q 892 401 901 440 q 743 153 854 268 q 577 17 671 78 q 414 -60 483 -43 l 375 -69 l 347 -51 q 297 10 321 -33 q 276 71 276 51 q 338 114 276 100 q 432 146 400 128 q 432 149 433 146 q 428 156 431 151 q 422 167 425 161 q 403 218 410 186 q 303 460 392 269 q 235 590 242 588 q 222 592 233 592 q 140 584 196 592 q 56 568 83 576 q 19 561 31 561 q 1 583 1 561 q 29 611 1 597 q 176 658 90 643 q 204 672 183 660 q 238 685 225 685 q 257 679 247 685 q 297 681 263 675 z "},"d":{"ha":901,"x_min":1,"x_max":901,"o":"m 457 589 q 364 596 426 592 l 326 599 l 354 561 q 483 363 417 476 q 550 231 550 250 q 553 222 550 222 q 585 244 557 222 q 665 319 622 274 q 729 399 708 365 q 765 492 765 456 q 764 501 765 499 q 725 527 761 510 q 651 556 689 544 q 457 589 557 583 m 297 681 q 496 693 376 693 q 692 679 624 693 q 819 630 764 665 q 892 551 874 594 q 901 482 901 526 q 892 401 901 440 q 743 153 854 268 q 577 17 671 78 q 414 -60 483 -43 l 375 -69 l 347 -51 q 297 10 321 -33 q 276 71 276 51 q 338 114 276 100 q 432 146 400 128 q 432 149 433 146 q 428 156 431 151 q 422 167 425 161 q 403 218 410 186 q 303 460 392 269 q 235 590 242 588 q 222 592 233 592 q 140 584 196 592 q 56 568 83 576 q 19 561 31 561 q 1 583 1 561 q 29 611 1 597 q 176 658 90 643 q 204 672 183 660 q 238 685 225 685 q 257 679 247 685 q 297 681 263 675 z "},"E":{"ha":719,"x_min":1,"x_max":721,"o":"m 486 650 q 464 654 486 654 q 392 644 421 654 q 282 588 339 628 q 192 504 225 549 q 160 436 160 458 q 163 428 160 429 q 165 426 164 426 q 208 438 172 426 q 358 513 286 464 q 461 610 429 561 q 486 650 486 644 m 397 814 q 440 818 418 818 q 540 798 494 818 q 597 746 585 778 q 603 708 603 733 q 571 574 603 646 q 524 518 563 557 q 226 386 421 415 l 175 378 l 194 353 q 235 317 213 328 q 318 301 263 301 q 361 306 342 301 q 535 394 443 326 q 625 442 583 431 q 664 449 649 449 q 690 442 676 449 q 717 422 714 431 q 721 396 721 410 q 688 292 721 353 q 656 247 672 263 q 599 203 640 231 q 304 108 456 108 q 232 117 265 108 q 50 271 119 146 q 1 435 1 360 q 82 642 1 543 q 397 814 192 776 z "},"e":{"ha":719,"x_min":1,"x_max":721,"o":"m 486 650 q 464 654 486 654 q 392 644 421 654 q 282 588 339 628 q 192 504 225 549 q 160 436 160 458 q 163 428 160 429 q 165 426 164 426 q 208 438 172 426 q 358 513 286 464 q 461 610 429 561 q 486 650 486 644 m 397 814 q 440 818 418 818 q 540 798 494 818 q 597 746 585 778 q 603 708 603 733 q 571 574 603 646 q 524 518 563 557 q 226 386 421 415 l 175 378 l 194 353 q 235 317 213 328 q 318 301 263 301 q 361 306 342 301 q 535 394 443 326 q 625 442 583 431 q 664 449 649 449 q 690 442 676 449 q 717 422 714 431 q 721 396 721 410 q 688 292 721 353 q 656 247 672 263 q 599 203 640 231 q 304 108 456 108 q 232 117 265 108 q 50 271 119 146 q 1 435 1 360 q 82 642 1 543 q 397 814 192 776 z "},"F":{"ha":1011,"x_min":1,"x_max":1011,"o":"m 672 886 q 779 894 722 894 q 872 886 835 894 q 944 860 907 879 q 997 822 982 842 q 1011 786 1011 804 q 1010 758 1011 769 q 981 658 1007 713 q 940 601 956 607 q 932 600 938 600 q 868 661 897 600 q 836 703 850 700 q 769 708 819 708 q 624 696 681 708 q 426 626 524 676 q 275 517 329 576 q 224 414 224 461 q 224 407 224 411 q 225 400 225 403 q 239 340 228 378 q 256 296 250 301 l 257 296 q 486 388 286 296 q 613 433 586 433 q 646 424 631 433 q 665 389 665 411 q 653 340 665 369 q 625 289 636 299 q 574 271 614 279 q 311 208 311 215 q 407 106 311 201 q 508 -18 508 4 q 504 -28 508 -24 q 500 -29 503 -29 q 388 26 476 -29 q 224 157 292 85 l 193 190 l 108 175 q 31 163 42 163 q 13 169 22 163 q 1 186 1 178 q 58 215 1 193 q 151 256 151 251 q 126 351 151 290 q 100 438 100 411 q 139 581 100 506 q 347 780 203 703 q 672 886 490 857 z "},"f":{"ha":1011,"x_min":1,"x_max":1011,"o":"m 672 886 q 779 894 722 894 q 872 886 835 894 q 944 860 907 879 q 997 822 982 842 q 1011 786 1011 804 q 1010 758 1011 769 q 981 658 1007 713 q 940 601 956 607 q 932 600 938 600 q 868 661 897 600 q 836 703 850 700 q 769 708 819 708 q 624 696 681 708 q 426 626 524 676 q 275 517 329 576 q 224 414 224 461 q 224 407 224 411 q 225 400 225 403 q 239 340 228 378 q 256 296 250 301 l 257 296 q 486 388 286 296 q 613 433 586 433 q 646 424 631 433 q 665 389 665 411 q 653 340 665 369 q 625 289 636 299 q 574 271 614 279 q 311 208 311 215 q 407 106 311 201 q 508 -18 508 4 q 504 -28 508 -24 q 500 -29 503 -29 q 388 26 476 -29 q 224 157 292 85 l 193 190 l 108 175 q 31 163 42 163 q 13 169 22 163 q 1 186 1 178 q 58 215 1 193 q 151 256 151 251 q 126 351 151 290 q 100 438 100 411 q 139 581 100 506 q 347 780 203 703 q 672 886 490 857 z "},"G":{"ha":872,"x_min":1,"x_max":872,"o":"m 479 782 q 581 796 529 796 q 649 786 621 796 q 690 753 675 776 q 704 713 704 728 q 699 703 704 703 q 686 715 693 703 q 626 742 672 742 q 357 631 522 742 q 236 528 303 594 q 150 422 169 461 q 131 353 131 388 q 169 267 131 307 q 325 219 211 224 l 356 219 q 528 253 440 219 q 629 308 575 271 q 683 357 683 344 q 682 360 683 358 q 625 370 675 364 q 543 376 575 376 q 420 360 482 376 q 328 318 358 343 q 296 300 304 300 q 229 372 269 300 q 207 439 207 411 q 267 508 207 478 q 447 560 329 539 q 563 567 496 567 q 707 554 661 567 q 795 519 750 543 q 854 476 840 494 q 872 406 872 453 q 804 217 872 300 q 630 99 747 147 q 381 44 513 50 q 363 44 374 44 q 346 43 351 43 q 124 110 218 43 q 76 153 93 132 q 35 219 58 174 q 1 338 1 282 q 40 471 1 397 q 124 578 68 522 q 479 782 271 726 z "},"g":{"ha":872,"x_min":1,"x_max":872,"o":"m 479 782 q 581 796 529 796 q 649 786 621 796 q 690 753 675 776 q 704 713 704 728 q 699 703 704 703 q 686 715 693 703 q 626 742 672 742 q 357 631 522 742 q 236 528 303 594 q 150 422 169 461 q 131 353 131 388 q 169 267 131 307 q 325 219 211 224 l 356 219 q 528 253 440 219 q 629 308 575 271 q 683 357 683 344 q 682 360 683 358 q 625 370 675 364 q 543 376 575 376 q 420 360 482 376 q 328 318 358 343 q 296 300 304 300 q 229 372 269 300 q 207 439 207 411 q 267 508 207 478 q 447 560 329 539 q 563 567 496 567 q 707 554 661 567 q 795 519 750 543 q 854 476 840 494 q 872 406 872 453 q 804 217 872 300 q 630 99 747 147 q 381 44 513 50 q 363 44 374 44 q 346 43 351 43 q 124 110 218 43 q 76 153 93 132 q 35 219 58 174 q 1 338 1 282 q 40 471 1 397 q 124 578 68 522 q 479 782 271 726 z "},"H":{"ha":764,"x_min":1,"x_max":764,"o":"m 461 863 q 513 871 499 871 q 532 863 525 871 q 551 854 540 854 q 571 838 564 854 q 593 753 578 821 q 743 183 674 399 q 764 96 764 119 q 763 88 764 93 q 763 81 763 83 q 754 40 760 47 q 732 -7 749 26 q 699 -44 714 -44 q 669 -32 689 -44 q 622 31 649 -18 q 576 139 594 79 q 486 463 549 222 l 481 483 l 468 463 q 407 397 450 433 q 321 338 364 360 l 265 308 l 267 279 q 286 175 267 256 q 303 71 303 104 q 283 -6 303 38 q 253 -51 264 -50 l 247 -51 q 178 15 214 -51 q 125 168 150 71 q 100 318 100 265 q 79 439 100 350 q 1 796 1 772 q 25 813 1 813 q 53 801 43 813 q 144 561 72 779 l 172 475 l 210 497 q 349 608 310 553 q 400 771 388 663 q 415 846 407 838 q 461 863 425 856 z "},"h":{"ha":764,"x_min":1,"x_max":764,"o":"m 461 863 q 513 871 499 871 q 532 863 525 871 q 551 854 540 854 q 571 838 564 854 q 593 753 578 821 q 743 183 674 399 q 764 96 764 119 q 763 88 764 93 q 763 81 763 83 q 754 40 760 47 q 732 -7 749 26 q 699 -44 714 -44 q 669 -32 689 -44 q 622 31 649 -18 q 576 139 594 79 q 486 463 549 222 l 481 483 l 468 463 q 407 397 450 433 q 321 338 364 360 l 265 308 l 267 279 q 286 175 267 256 q 303 71 303 104 q 283 -6 303 38 q 253 -51 264 -50 l 247 -51 q 178 15 214 -51 q 125 168 150 71 q 100 318 100 265 q 79 439 100 350 q 1 796 1 772 q 25 813 1 813 q 53 801 43 813 q 144 561 72 779 l 172 475 l 210 497 q 349 608 310 553 q 400 771 388 663 q 415 846 407 838 q 461 863 425 856 z "},"I":{"ha":293,"x_min":1,"x_max":293,"o":"m 189 1149 q 236 1157 214 1157 q 275 1149 258 1157 q 290 1137 288 1143 q 293 1107 293 1131 q 276 1030 293 1081 q 236 942 258 979 q 150 825 203 883 q 58 744 97 767 q 13 726 28 726 q 1 739 1 726 q 31 804 1 756 q 117 969 81 883 q 153 1097 153 1056 q 159 1133 153 1124 q 189 1149 165 1142 m 51 606 q 79 614 63 617 q 101 596 93 613 q 139 490 110 579 q 258 190 218 257 q 282 124 282 150 q 274 88 282 106 q 218 3 244 3 q 187 21 206 3 q 154 64 168 39 q 90 278 129 107 q 44 544 51 450 q 43 575 43 557 q 51 606 43 597 z "},"i":{"ha":293,"x_min":1,"x_max":293,"o":"m 189 1149 q 236 1157 214 1157 q 275 1149 258 1157 q 290 1137 288 1143 q 293 1107 293 1131 q 276 1030 293 1081 q 236 942 258 979 q 150 825 203 883 q 58 744 97 767 q 13 726 28 726 q 1 739 1 726 q 31 804 1 756 q 117 969 81 883 q 153 1097 153 1056 q 159 1133 153 1124 q 189 1149 165 1142 m 51 606 q 79 614 63 617 q 101 596 93 613 q 139 490 110 579 q 258 190 218 257 q 282 124 282 150 q 274 88 282 106 q 218 3 244 3 q 187 21 206 3 q 154 64 168 39 q 90 278 129 107 q 44 544 51 450 q 43 575 43 557 q 51 606 43 597 z "},"J":{"ha":678,"x_min":1,"x_max":678,"o":"m 556 1031 q 606 1040 586 1040 q 646 1029 621 1040 q 667 1016 663 1021 q 671 997 671 1011 q 653 934 671 981 q 625 875 636 888 q 426 783 603 851 q 419 778 419 781 q 471 721 419 771 q 663 442 618 576 q 678 340 678 393 q 664 249 678 293 q 576 96 631 150 q 422 11 521 42 q 285 -6 367 -6 q 167 4 208 -6 q 88 43 125 14 q 27 115 53 68 q 1 194 1 161 q 4 214 1 203 q 40 246 13 233 q 97 258 68 258 q 151 226 151 258 q 164 204 151 213 q 307 179 201 179 l 325 179 q 422 200 383 181 q 494 251 461 219 q 535 310 528 283 q 542 365 542 338 q 536 415 542 393 q 453 588 518 489 q 383 686 426 629 q 333 743 339 743 q 282 725 328 743 q 117 674 150 674 q 72 708 88 674 q 68 746 61 733 q 326 910 78 769 q 408 955 353 925 q 475 993 463 985 q 556 1031 519 1021 z "},"j":{"ha":678,"x_min":1,"x_max":678,"o":"m 556 1031 q 606 1040 586 1040 q 646 1029 621 1040 q 667 1016 663 1021 q 671 997 671 1011 q 653 934 671 981 q 625 875 636 888 q 426 783 603 851 q 419 778 419 781 q 471 721 419 771 q 663 442 618 576 q 678 340 678 393 q 664 249 678 293 q 576 96 631 150 q 422 11 521 42 q 285 -6 367 -6 q 167 4 208 -6 q 88 43 125 14 q 27 115 53 68 q 1 194 1 161 q 4 214 1 203 q 40 246 13 233 q 97 258 68 258 q 151 226 151 258 q 164 204 151 213 q 307 179 201 179 l 325 179 q 422 200 383 181 q 494 251 461 219 q 535 310 528 283 q 542 365 542 338 q 536 415 542 393 q 453 588 518 489 q 383 686 426 629 q 333 743 339 743 q 282 725 328 743 q 117 674 150 674 q 72 708 88 674 q 68 746 61 733 q 326 910 78 769 q 408 955 353 925 q 475 993 463 985 q 556 1031 519 1021 z "},"K":{"ha":786,"x_min":1,"x_max":786,"o":"m 3 849 q 24 861 7 861 q 46 847 40 861 q 82 701 49 840 q 118 554 115 561 q 131 503 118 553 q 156 406 143 454 q 169 358 168 358 q 190 383 172 358 q 208 413 207 407 q 422 675 208 426 q 511 764 496 760 q 544 772 521 765 q 590 781 574 781 q 626 771 608 781 q 647 755 642 763 q 651 729 651 747 q 619 618 651 682 q 550 515 607 594 q 450 369 500 444 l 408 307 l 517 263 q 725 189 699 189 q 746 183 746 189 q 757 178 746 178 q 786 139 786 178 q 785 133 786 138 q 785 125 785 128 q 772 81 779 89 q 767 67 764 67 q 762 51 769 67 q 744 19 754 36 q 729 -1 733 1 q 704 -10 718 -10 q 504 61 671 -10 q 310 136 326 136 q 271 81 304 136 q 216 -2 233 19 q 183 -24 199 -24 q 158 -14 172 -24 q 121 31 142 -3 q 93 93 100 65 q 35 553 85 124 q 14 701 17 694 q 6 757 11 707 q 1 835 1 807 q 3 849 1 847 z "},"k":{"ha":786,"x_min":1,"x_max":786,"o":"m 3 849 q 24 861 7 861 q 46 847 40 861 q 82 701 49 840 q 118 554 115 561 q 131 503 118 553 q 156 406 143 454 q 169 358 168 358 q 190 383 172 358 q 208 413 207 407 q 422 675 208 426 q 511 764 496 760 q 544 772 521 765 q 590 781 574 781 q 626 771 608 781 q 647 755 642 763 q 651 729 651 747 q 619 618 651 682 q 550 515 607 594 q 450 369 500 444 l 408 307 l 517 263 q 725 189 699 189 q 746 183 746 189 q 757 178 746 178 q 786 139 786 178 q 785 133 786 138 q 785 125 785 128 q 772 81 779 89 q 767 67 764 67 q 762 51 769 67 q 744 19 754 36 q 729 -1 733 1 q 704 -10 718 -10 q 504 61 671 -10 q 310 136 326 136 q 271 81 304 136 q 216 -2 233 19 q 183 -24 199 -24 q 158 -14 172 -24 q 121 31 142 -3 q 93 93 100 65 q 35 553 85 124 q 14 701 17 694 q 6 757 11 707 q 1 835 1 807 q 3 849 1 847 z "},"L":{"ha":885,"x_min":1,"x_max":885,"o":"m 15 819 q 38 825 32 825 q 72 806 54 825 q 118 736 89 786 q 343 235 225 551 q 383 132 382 133 q 449 161 386 129 q 582 224 507 192 l 657 260 q 625 292 657 269 q 567 342 582 325 q 535 390 551 358 q 514 449 514 435 q 532 476 514 467 q 593 493 550 486 q 624 497 614 497 q 671 479 639 497 q 784 399 704 461 q 875 319 864 338 q 885 272 885 303 q 875 218 885 243 q 858 175 868 204 q 775 96 840 122 q 446 -57 583 17 q 357 -97 368 -97 q 294 -48 328 -97 q 243 74 261 1 q 140 415 211 197 q 28 736 69 632 q 1 808 1 799 q 15 819 1 814 z "},"l":{"ha":885,"x_min":1,"x_max":885,"o":"m 15 819 q 38 825 32 825 q 72 806 54 825 q 118 736 89 786 q 343 235 225 551 q 383 132 382 133 q 449 161 386 129 q 582 224 507 192 l 657 260 q 625 292 657 269 q 567 342 582 325 q 535 390 551 358 q 514 449 514 435 q 532 476 514 467 q 593 493 550 486 q 624 497 614 497 q 671 479 639 497 q 784 399 704 461 q 875 319 864 338 q 885 272 885 303 q 875 218 885 243 q 858 175 868 204 q 775 96 840 122 q 446 -57 583 17 q 357 -97 368 -97 q 294 -48 328 -97 q 243 74 261 1 q 140 415 211 197 q 28 736 69 632 q 1 808 1 799 q 15 819 1 814 z "},"M":{"ha":996,"x_min":1,"x_max":997,"o":"m 563 929 q 606 935 585 935 q 629 928 624 935 q 646 918 639 918 q 689 875 667 918 q 810 536 693 865 q 986 64 963 97 q 997 31 997 46 q 997 22 997 28 q 996 13 996 17 q 992 -17 994 -7 q 983 -37 989 -26 q 974 -58 978 -47 q 929 -114 956 -114 q 892 -96 917 -114 q 817 21 856 -67 q 685 376 779 108 q 594 619 601 619 q 584 567 593 619 q 565 444 575 515 q 550 324 556 374 q 528 160 535 194 q 497 75 521 126 q 456 29 476 29 q 414 50 439 29 q 218 365 357 94 l 176 446 l 172 357 q 144 67 164 185 q 101 -50 124 -50 q 81 -17 86 -50 q 74 139 75 15 q 7 811 65 589 q 1 844 1 829 q 15 870 1 861 q 65 886 29 879 q 111 893 97 893 q 126 888 121 893 q 147 878 136 878 q 168 859 157 878 q 214 761 179 840 q 321 536 247 686 l 389 403 l 396 454 q 428 655 406 522 q 458 819 451 788 q 481 885 469 860 q 503 912 492 906 q 563 929 515 918 z "},"m":{"ha":996,"x_min":1,"x_max":997,"o":"m 563 929 q 606 935 585 935 q 629 928 624 935 q 646 918 639 918 q 689 875 667 918 q 810 536 693 865 q 986 64 963 97 q 997 31 997 46 q 997 22 997 28 q 996 13 996 17 q 992 -17 994 -7 q 983 -37 989 -26 q 974 -58 978 -47 q 929 -114 956 -114 q 892 -96 917 -114 q 817 21 856 -67 q 685 376 779 108 q 594 619 601 619 q 584 567 593 619 q 565 444 575 515 q 550 324 556 374 q 528 160 535 194 q 497 75 521 126 q 456 29 476 29 q 414 50 439 29 q 218 365 357 94 l 176 446 l 172 357 q 144 67 164 185 q 101 -50 124 -50 q 81 -17 86 -50 q 74 139 75 15 q 7 811 65 589 q 1 844 1 829 q 15 870 1 861 q 65 886 29 879 q 111 893 97 893 q 126 888 121 893 q 147 878 136 878 q 168 859 157 878 q 214 761 179 840 q 321 536 247 686 l 389 403 l 396 454 q 428 655 406 522 q 458 819 451 788 q 481 885 469 860 q 503 912 492 906 q 563 929 515 918 z "},"N":{"ha":646,"x_min":1,"x_max":646,"o":"m 401 869 q 446 878 435 878 q 463 869 456 878 q 481 860 472 860 q 497 844 492 860 q 506 785 503 829 q 607 321 513 679 q 646 122 646 171 q 636 78 646 97 q 629 61 629 64 q 601 1 629 42 q 575 -17 589 -17 q 540 -1 564 -17 q 478 61 515 15 q 322 272 442 107 q 194 443 196 443 q 196 416 193 443 q 203 346 199 389 q 215 131 213 251 q 217 57 217 99 q 206 -17 217 7 q 189 -44 193 -44 q 167 -12 182 -44 q 142 58 151 21 q 81 339 128 107 q 25 611 35 571 q 1 735 1 718 q 16 768 1 757 q 71 788 31 779 q 113 794 108 794 q 129 788 119 794 q 149 778 139 778 q 294 603 167 778 q 386 479 385 481 q 371 561 392 474 q 328 804 328 753 q 339 840 328 819 q 358 861 350 861 q 401 869 363 861 z "},"n":{"ha":646,"x_min":1,"x_max":646,"o":"m 401 869 q 446 878 435 878 q 463 869 456 878 q 481 860 472 860 q 497 844 492 860 q 506 785 503 829 q 607 321 513 679 q 646 122 646 171 q 636 78 646 97 q 629 61 629 64 q 601 1 629 42 q 575 -17 589 -17 q 540 -1 564 -17 q 478 61 515 15 q 322 272 442 107 q 194 443 196 443 q 196 416 193 443 q 203 346 199 389 q 215 131 213 251 q 217 57 217 99 q 206 -17 217 7 q 189 -44 193 -44 q 167 -12 182 -44 q 142 58 151 21 q 81 339 128 107 q 25 611 35 571 q 1 735 1 718 q 16 768 1 757 q 71 788 31 779 q 113 794 108 794 q 129 788 119 794 q 149 778 139 778 q 294 603 167 778 q 386 479 385 481 q 371 561 392 474 q 328 804 328 753 q 339 840 328 819 q 358 861 350 861 q 401 869 363 861 z "},"O":{"ha":582,"x_min":0,"x_max":582,"o":"m 314 549 q 240 567 285 563 q 228 567 236 567 q 218 568 221 568 q 186 560 197 568 q 157 525 175 553 q 135 511 147 511 q 118 519 125 511 q 107 528 111 528 q 101 507 101 528 q 103 479 101 490 q 153 301 110 390 q 215 207 179 246 q 288 157 251 168 q 321 150 311 150 q 367 175 342 150 q 425 336 425 233 q 407 446 425 385 q 371 504 397 475 q 314 549 344 533 m 118 753 q 153 765 139 765 q 157 764 154 765 l 160 764 q 242 760 172 760 l 310 758 l 367 729 q 569 478 518 654 q 582 343 582 433 q 565 207 582 257 q 417 -6 507 36 q 336 -18 388 -18 q 288 -15 301 -18 q 244 3 274 -11 q 74 181 149 51 q 0 458 0 311 q 25 611 0 533 q 118 753 63 725 z "},"o":{"ha":582,"x_min":0,"x_max":582,"o":"m 314 549 q 240 567 285 563 q 228 567 236 567 q 218 568 221 568 q 186 560 197 568 q 157 525 175 553 q 135 511 147 511 q 118 519 125 511 q 107 528 111 528 q 101 507 101 528 q 103 479 101 490 q 153 301 110 390 q 215 207 179 246 q 288 157 251 168 q 321 150 311 150 q 367 175 342 150 q 425 336 425 233 q 407 446 425 385 q 371 504 397 475 q 314 549 344 533 m 118 753 q 153 765 139 765 q 157 764 154 765 l 160 764 q 242 760 172 760 l 310 758 l 367 729 q 569 478 518 654 q 582 343 582 433 q 565 207 582 257 q 417 -6 507 36 q 336 -18 388 -18 q 288 -15 301 -18 q 244 3 274 -11 q 74 181 149 51 q 0 458 0 311 q 25 611 0 533 q 118 753 63 725 z "},"P":{"ha":649,"x_min":0,"x_max":649,"o":"m 190 364 q 192 364 190 364 q 193 367 193 364 q 190 369 193 369 q 188 367 188 369 q 190 364 188 364 m 181 382 q 182 378 181 378 l 185 382 q 185 386 186 385 q 181 382 181 389 m 463 789 q 414 794 442 794 q 270 757 344 794 q 156 663 196 719 q 136 585 136 638 q 143 518 136 557 q 156 467 147 494 q 171 420 164 439 q 179 401 178 401 q 181 404 181 403 q 193 434 182 422 q 243 472 204 446 q 402 616 333 532 q 482 763 471 700 q 482 781 485 778 q 463 789 479 785 m 360 975 q 435 981 396 981 l 450 981 q 540 958 499 979 q 615 905 596 931 q 644 824 635 879 q 649 778 649 800 q 592 582 649 697 q 447 389 544 482 q 349 310 406 350 q 279 271 293 271 q 244 288 265 271 q 210 331 224 306 q 206 338 208 333 l 193 357 q 263 190 193 356 q 336 7 329 36 q 338 -4 338 3 q 321 -39 338 -39 q 211 101 303 -39 q 67 353 119 242 q 0 610 0 493 q 75 829 0 735 q 360 975 158 935 z "},"p":{"ha":649,"x_min":0,"x_max":649,"o":"m 190 364 q 192 364 190 364 q 193 367 193 364 q 190 369 193 369 q 188 367 188 369 q 190 364 188 364 m 181 382 q 182 378 181 378 l 185 382 q 185 386 186 385 q 181 382 181 389 m 463 789 q 414 794 442 794 q 270 757 344 794 q 156 663 196 719 q 136 585 136 638 q 143 518 136 557 q 156 467 147 494 q 171 420 164 439 q 179 401 178 401 q 181 404 181 403 q 193 434 182 422 q 243 472 204 446 q 402 616 333 532 q 482 763 471 700 q 482 781 485 778 q 463 789 479 785 m 360 975 q 435 981 396 981 l 450 981 q 540 958 499 979 q 615 905 596 931 q 644 824 635 879 q 649 778 649 800 q 592 582 649 697 q 447 389 544 482 q 349 310 406 350 q 279 271 293 271 q 244 288 265 271 q 210 331 224 306 q 206 338 208 333 l 193 357 q 263 190 193 356 q 336 7 329 36 q 338 -4 338 3 q 321 -39 338 -39 q 211 101 303 -39 q 67 353 119 242 q 0 610 0 493 q 75 829 0 735 q 360 975 158 935 z "},"Q":{"ha":903,"x_min":1,"x_max":903,"o":"m 379 626 q 368 636 375 626 q 364 639 365 639 q 311 594 356 639 q 139 333 161 442 q 136 306 136 314 q 179 206 136 253 q 321 156 225 156 l 342 156 q 397 161 381 157 q 449 182 414 165 q 508 221 506 213 q 490 254 508 228 q 463 317 463 299 q 508 344 463 340 q 518 345 513 344 q 526 346 524 346 q 579 326 546 346 q 622 308 618 308 l 624 308 q 660 356 632 314 q 700 424 688 397 q 728 543 728 482 q 725 567 728 553 q 715 590 722 582 q 681 610 707 597 q 583 632 639 631 q 568 633 578 632 q 554 633 558 633 q 489 619 525 633 q 432 601 443 601 q 406 613 424 601 q 379 626 388 626 m 485 810 q 586 824 540 824 l 610 824 q 672 819 657 822 q 731 794 688 815 q 883 639 856 733 q 893 549 893 610 q 881 435 893 481 q 793 232 849 314 q 776 203 776 208 q 817 165 776 199 q 885 106 867 126 q 903 61 903 85 q 896 22 903 47 q 865 -47 882 -19 q 833 -74 847 -74 q 801 -58 822 -74 q 772 -29 781 -43 q 715 37 761 -11 q 663 85 668 85 q 624 63 657 85 q 340 -29 489 -29 q 88 76 179 -29 q 38 154 61 108 q 1 288 1 226 q 43 439 1 356 q 166 601 83 519 q 342 735 249 683 q 386 764 378 756 q 485 810 406 790 z "},"q":{"ha":903,"x_min":1,"x_max":903,"o":"m 379 626 q 368 636 375 626 q 364 639 365 639 q 311 594 356 639 q 139 333 161 442 q 136 306 136 314 q 179 206 136 253 q 321 156 225 156 l 342 156 q 397 161 381 157 q 449 182 414 165 q 508 221 506 213 q 490 254 508 228 q 463 317 463 299 q 508 344 463 340 q 518 345 513 344 q 526 346 524 346 q 579 326 546 346 q 622 308 618 308 l 624 308 q 660 356 632 314 q 700 424 688 397 q 728 543 728 482 q 725 567 728 553 q 715 590 722 582 q 681 610 707 597 q 583 632 639 631 q 568 633 578 632 q 554 633 558 633 q 489 619 525 633 q 432 601 443 601 q 406 613 424 601 q 379 626 388 626 m 485 810 q 586 824 540 824 l 610 824 q 672 819 657 822 q 731 794 688 815 q 883 639 856 733 q 893 549 893 610 q 881 435 893 481 q 793 232 849 314 q 776 203 776 208 q 817 165 776 199 q 885 106 867 126 q 903 61 903 85 q 896 22 903 47 q 865 -47 882 -19 q 833 -74 847 -74 q 801 -58 822 -74 q 772 -29 781 -43 q 715 37 761 -11 q 663 85 668 85 q 624 63 657 85 q 340 -29 489 -29 q 88 76 179 -29 q 38 154 61 108 q 1 288 1 226 q 43 439 1 356 q 166 601 83 519 q 342 735 249 683 q 386 764 378 756 q 485 810 406 790 z "},"R":{"ha":721,"x_min":1,"x_max":721,"o":"m 422 775 q 311 800 369 800 q 157 736 217 800 q 131 691 138 715 q 124 618 124 667 l 124 600 q 133 495 124 567 q 147 415 142 424 l 149 415 q 186 439 156 415 q 233 473 199 449 q 271 500 267 497 q 396 619 346 554 q 451 732 446 683 l 454 761 l 422 775 m 244 964 q 349 976 300 976 q 407 971 383 976 q 485 940 439 964 q 556 893 532 915 q 615 747 615 838 q 565 560 615 667 q 413 368 513 451 l 360 325 l 428 297 q 660 218 622 218 q 687 209 674 218 q 707 199 700 200 q 719 190 717 196 q 721 167 721 185 q 690 58 721 119 q 640 19 671 19 q 433 87 604 19 q 226 183 263 154 q 210 193 213 196 q 231 118 210 189 q 258 3 258 28 q 257 -10 258 -6 q 252 -19 254 -18 q 243 -12 250 -19 q 181 99 233 -3 q 100 268 128 201 q 1 667 1 501 q 15 769 1 728 q 94 899 42 854 q 244 964 147 943 z "},"r":{"ha":721,"x_min":1,"x_max":721,"o":"m 422 775 q 311 800 369 800 q 157 736 217 800 q 131 691 138 715 q 124 618 124 667 l 124 600 q 133 495 124 567 q 147 415 142 424 l 149 415 q 186 439 156 415 q 233 473 199 449 q 271 500 267 497 q 396 619 346 554 q 451 732 446 683 l 454 761 l 422 775 m 244 964 q 349 976 300 976 q 407 971 383 976 q 485 940 439 964 q 556 893 532 915 q 615 747 615 838 q 565 560 615 667 q 413 368 513 451 l 360 325 l 428 297 q 660 218 622 218 q 687 209 674 218 q 707 199 700 200 q 719 190 717 196 q 721 167 721 185 q 690 58 721 119 q 640 19 671 19 q 433 87 604 19 q 226 183 263 154 q 210 193 213 196 q 231 118 210 189 q 258 3 258 28 q 257 -10 258 -6 q 252 -19 254 -18 q 243 -12 250 -19 q 181 99 233 -3 q 100 268 128 201 q 1 667 1 501 q 15 769 1 728 q 94 899 42 854 q 244 964 147 943 z "},"S":{"ha":968,"x_min":3,"x_max":969,"o":"m 478 950 q 554 951 486 951 q 611 947 597 950 q 647 932 625 944 q 689 895 678 915 q 700 840 700 875 q 657 702 700 774 q 553 593 614 631 q 464 556 490 556 q 454 563 454 556 q 472 592 454 572 q 549 697 514 638 q 583 783 583 757 q 574 796 583 796 q 547 793 572 796 q 368 731 465 783 q 204 606 271 678 q 172 565 172 572 q 178 551 172 563 q 280 494 199 515 q 543 457 361 474 q 822 424 757 436 q 905 397 860 417 q 960 363 950 376 q 969 326 969 347 q 931 197 969 271 q 807 107 903 143 q 585 51 715 74 q 363 28 454 28 q 313 31 340 28 q 246 56 272 35 q 201 115 221 76 q 182 182 182 154 q 186 200 182 194 q 368 226 203 225 q 546 239 483 229 q 596 251 596 247 q 478 268 596 256 q 150 343 239 290 q 62 425 101 372 q 8 535 22 478 q 3 571 3 557 q 8 608 3 586 q 153 804 33 713 q 478 950 297 915 z "},"s":{"ha":968,"x_min":3,"x_max":969,"o":"m 478 950 q 554 951 486 951 q 611 947 597 950 q 647 932 625 944 q 689 895 678 915 q 700 840 700 875 q 657 702 700 774 q 553 593 614 631 q 464 556 490 556 q 454 563 454 556 q 472 592 454 572 q 549 697 514 638 q 583 783 583 757 q 574 796 583 796 q 547 793 572 796 q 368 731 465 783 q 204 606 271 678 q 172 565 172 572 q 178 551 172 563 q 280 494 199 515 q 543 457 361 474 q 822 424 757 436 q 905 397 860 417 q 960 363 950 376 q 969 326 969 347 q 931 197 969 271 q 807 107 903 143 q 585 51 715 74 q 363 28 454 28 q 313 31 340 28 q 246 56 272 35 q 201 115 221 76 q 182 182 182 154 q 186 200 182 194 q 368 226 203 225 q 546 239 483 229 q 596 251 596 247 q 478 268 596 256 q 150 343 239 290 q 62 425 101 372 q 8 535 22 478 q 3 571 3 557 q 8 608 3 586 q 153 804 33 713 q 478 950 297 915 z "},"T":{"ha":924,"x_min":1,"x_max":924,"o":"m 821 1000 q 856 1004 844 1004 q 899 993 872 1004 l 924 981 l 922 943 q 918 908 921 921 q 908 881 915 896 q 896 856 900 865 q 876 824 886 833 q 838 806 865 815 q 808 795 832 804 q 746 773 783 786 q 676 749 708 760 q 546 690 546 701 q 558 587 546 681 q 585 384 571 493 q 604 239 600 275 q 614 97 614 139 q 608 46 614 63 l 601 29 l 588 43 q 561 89 575 54 q 444 519 526 181 q 411 650 414 647 q 326 621 410 651 q 171 564 194 574 l 97 539 l 75 556 q 31 606 56 569 q 3 667 7 643 q 1 682 1 672 q 22 715 1 700 q 110 763 42 729 q 439 878 351 878 q 564 915 461 878 q 821 1000 757 988 z "},"t":{"ha":924,"x_min":1,"x_max":924,"o":"m 821 1000 q 856 1004 844 1004 q 899 993 872 1004 l 924 981 l 922 943 q 918 908 921 921 q 908 881 915 896 q 896 856 900 865 q 876 824 886 833 q 838 806 865 815 q 808 795 832 804 q 746 773 783 786 q 676 749 708 760 q 546 690 546 701 q 558 587 546 681 q 585 384 571 493 q 604 239 600 275 q 614 97 614 139 q 608 46 614 63 l 601 29 l 588 43 q 561 89 575 54 q 444 519 526 181 q 411 650 414 647 q 326 621 410 651 q 171 564 194 574 l 97 539 l 75 556 q 31 606 56 569 q 3 667 7 643 q 1 682 1 672 q 22 715 1 700 q 110 763 42 729 q 439 878 351 878 q 564 915 461 878 q 821 1000 757 988 z "},"U":{"ha":649,"x_min":1,"x_max":649,"o":"m 372 825 q 413 840 379 832 q 468 849 446 849 q 489 843 485 849 q 503 836 492 836 q 565 753 526 836 q 649 414 649 574 q 606 215 649 306 q 596 193 600 203 q 590 178 592 183 l 589 172 q 588 169 590 172 q 582 158 586 165 q 572 144 578 151 q 404 63 514 63 q 349 69 379 63 q 107 262 213 106 q 1 586 1 418 q 43 719 1 719 l 47 719 q 60 714 57 718 q 64 694 63 710 q 189 349 76 489 q 304 249 244 278 q 392 225 351 225 q 397 226 394 225 q 401 226 400 226 q 452 264 425 232 q 483 324 479 296 q 489 399 489 357 q 406 697 489 525 q 367 807 367 779 q 372 825 367 819 z "},"u":{"ha":649,"x_min":1,"x_max":649,"o":"m 372 825 q 413 840 379 832 q 468 849 446 849 q 489 843 485 849 q 503 836 492 836 q 565 753 526 836 q 649 414 649 574 q 606 215 649 306 q 596 193 600 203 q 590 178 592 183 l 589 172 q 588 169 590 172 q 582 158 586 165 q 572 144 578 151 q 404 63 514 63 q 349 69 379 63 q 107 262 213 106 q 1 586 1 418 q 43 719 1 719 l 47 719 q 60 714 57 718 q 64 694 63 710 q 189 349 76 489 q 304 249 244 278 q 392 225 351 225 q 397 226 394 225 q 401 226 400 226 q 452 264 425 232 q 483 324 479 296 q 489 399 489 357 q 406 697 489 525 q 367 807 367 779 q 372 825 367 819 z "},"V":{"ha":568,"x_min":1,"x_max":568,"o":"m 467 881 q 515 889 501 889 q 531 881 526 889 q 549 872 533 872 q 568 842 568 872 q 564 789 568 825 q 538 353 556 717 q 510 124 528 175 q 457 33 482 44 q 443 29 449 29 q 417 42 435 29 q 364 94 392 58 q 275 228 336 131 q 10 689 58 568 q 1 718 1 711 q 7 729 1 724 q 36 738 15 738 q 63 732 53 738 q 219 531 79 719 q 326 390 283 444 q 369 336 368 335 q 379 519 371 338 q 398 812 390 753 q 425 872 406 871 q 467 881 428 872 z "},"v":{"ha":568,"x_min":1,"x_max":568,"o":"m 467 881 q 515 889 501 889 q 531 881 526 889 q 549 872 533 872 q 568 842 568 872 q 564 789 568 825 q 538 353 556 717 q 510 124 528 175 q 457 33 482 44 q 443 29 449 29 q 417 42 435 29 q 364 94 392 58 q 275 228 336 131 q 10 689 58 568 q 1 718 1 711 q 7 729 1 724 q 36 738 15 738 q 63 732 53 738 q 219 531 79 719 q 326 390 283 444 q 369 336 368 335 q 379 519 371 338 q 398 812 390 753 q 425 872 406 871 q 467 881 428 872 z "},"W":{"ha":757,"x_min":1,"x_max":756,"o":"m 556 875 q 598 890 560 879 q 657 900 636 900 q 671 894 671 900 q 682 889 671 889 q 706 874 700 889 q 713 815 713 860 q 744 422 713 706 q 756 275 756 311 q 736 181 756 225 q 682 111 707 111 q 643 131 667 111 q 593 181 615 151 q 490 329 571 210 q 403 447 404 457 q 415 333 403 433 q 424 217 424 258 q 406 119 424 164 q 361 61 382 61 q 329 74 347 61 q 192 319 299 92 q 8 733 76 563 q 1 758 1 751 q 25 772 1 772 q 73 740 47 772 q 172 583 99 707 q 226 503 222 503 q 227 508 226 507 q 226 521 228 508 q 224 540 225 533 q 222 563 224 547 q 219 588 221 579 q 211 711 211 663 q 219 776 211 764 q 303 807 231 792 q 325 810 322 810 q 360 799 339 810 q 404 765 388 785 q 483 651 421 744 q 519 601 500 629 q 547 559 538 572 q 557 546 556 546 q 556 579 558 546 q 551 656 554 613 q 544 797 544 729 q 556 875 544 864 z "},"w":{"ha":757,"x_min":1,"x_max":756,"o":"m 556 875 q 598 890 560 879 q 657 900 636 900 q 671 894 671 900 q 682 889 671 889 q 706 874 700 889 q 713 815 713 860 q 744 422 713 706 q 756 275 756 311 q 736 181 756 225 q 682 111 707 111 q 643 131 667 111 q 593 181 615 151 q 490 329 571 210 q 403 447 404 457 q 415 333 403 433 q 424 217 424 258 q 406 119 424 164 q 361 61 382 61 q 329 74 347 61 q 192 319 299 92 q 8 733 76 563 q 1 758 1 751 q 25 772 1 772 q 73 740 47 772 q 172 583 99 707 q 226 503 222 503 q 227 508 226 507 q 226 521 228 508 q 224 540 225 533 q 222 563 224 547 q 219 588 221 579 q 211 711 211 663 q 219 776 211 764 q 303 807 231 792 q 325 810 322 810 q 360 799 339 810 q 404 765 388 785 q 483 651 421 744 q 519 601 500 629 q 547 559 538 572 q 557 546 556 546 q 556 579 558 546 q 551 656 554 613 q 544 797 544 729 q 556 875 544 864 z "},"X":{"ha":789,"x_min":1,"x_max":789,"o":"m 679 815 q 735 824 721 824 q 760 818 749 824 q 771 812 764 815 q 781 807 778 808 q 789 772 789 803 q 781 726 789 743 q 774 707 774 713 q 758 672 774 700 q 621 540 740 640 l 501 439 l 563 347 q 675 126 675 182 q 671 107 675 115 q 649 89 665 89 q 640 96 640 89 q 582 172 640 108 q 443 310 524 235 q 396 338 411 338 q 358 311 381 338 q 143 64 156 81 q 100 21 114 24 l 97 21 q 62 40 82 21 q 26 88 42 58 q 1 153 1 133 q 10 182 1 167 q 94 283 19 200 q 224 417 169 365 l 271 460 l 181 549 q 11 764 11 714 q 17 778 11 778 q 40 761 21 778 q 264 603 99 708 l 338 556 l 476 671 q 546 729 510 699 q 603 777 582 760 q 626 797 624 794 q 679 815 640 808 z "},"x":{"ha":789,"x_min":1,"x_max":789,"o":"m 679 815 q 735 824 721 824 q 760 818 749 824 q 771 812 764 815 q 781 807 778 808 q 789 772 789 803 q 781 726 789 743 q 774 707 774 713 q 758 672 774 700 q 621 540 740 640 l 501 439 l 563 347 q 675 126 675 182 q 671 107 675 115 q 649 89 665 89 q 640 96 640 89 q 582 172 640 108 q 443 310 524 235 q 396 338 411 338 q 358 311 381 338 q 143 64 156 81 q 100 21 114 24 l 97 21 q 62 40 82 21 q 26 88 42 58 q 1 153 1 133 q 10 182 1 167 q 94 283 19 200 q 224 417 169 365 l 271 460 l 181 549 q 11 764 11 714 q 17 778 11 778 q 40 761 21 778 q 264 603 99 708 l 338 556 l 476 671 q 546 729 510 699 q 603 777 582 760 q 626 797 624 794 q 679 815 640 808 z "},"Y":{"ha":893,"x_min":1,"x_max":892,"o":"m 781 957 q 831 964 818 964 l 832 964 q 867 951 846 964 q 890 929 888 939 q 892 913 892 925 q 879 853 892 875 q 874 840 875 844 q 874 836 872 836 q 867 818 876 836 q 842 772 858 800 q 808 717 826 744 q 533 254 618 422 q 501 164 510 208 q 440 14 472 46 q 408 1 428 1 q 399 7 399 1 q 382 21 399 10 q 342 76 365 31 q 319 143 319 122 q 322 172 319 157 q 326 199 324 188 q 335 229 328 211 q 344 256 342 247 q 357 286 347 265 q 369 313 367 307 q 384 342 372 319 q 397 369 396 365 q 436 460 436 450 l 342 522 q 148 654 249 586 q 33 735 47 722 q 1 782 1 764 q 13 790 1 790 q 149 729 21 790 q 436 607 394 610 l 439 607 q 472 630 451 607 q 585 771 493 653 q 693 899 654 858 q 740 943 729 936 q 781 957 750 950 z "},"y":{"ha":893,"x_min":1,"x_max":892,"o":"m 781 957 q 831 964 818 964 l 832 964 q 867 951 846 964 q 890 929 888 939 q 892 913 892 925 q 879 853 892 875 q 874 840 875 844 q 874 836 872 836 q 867 818 876 836 q 842 772 858 800 q 808 717 826 744 q 533 254 618 422 q 501 164 510 208 q 440 14 472 46 q 408 1 428 1 q 399 7 399 1 q 382 21 399 10 q 342 76 365 31 q 319 143 319 122 q 322 172 319 157 q 326 199 324 188 q 335 229 328 211 q 344 256 342 247 q 357 286 347 265 q 369 313 367 307 q 384 342 372 319 q 397 369 396 365 q 436 460 436 450 l 342 522 q 148 654 249 586 q 33 735 47 722 q 1 782 1 764 q 13 790 1 790 q 149 729 21 790 q 436 607 394 610 l 439 607 q 472 630 451 607 q 585 771 493 653 q 693 899 654 858 q 740 943 729 936 q 781 957 750 950 z "},"Z":{"ha":818,"x_min":1,"x_max":817,"o":"m 582 769 q 639 778 619 778 q 685 764 665 778 q 703 749 700 756 q 707 726 707 742 q 694 667 707 707 q 665 601 681 628 q 483 390 643 564 q 444 349 467 372 q 410 311 422 325 q 393 293 397 297 l 378 276 l 428 294 q 531 333 439 299 q 647 379 622 367 q 717 403 676 394 q 757 408 744 408 q 778 403 767 408 q 803 393 792 393 q 817 356 817 393 q 806 303 817 321 q 799 289 799 292 q 782 250 799 283 q 742 207 765 219 q 590 146 719 194 q 297 36 572 139 q 114 -31 149 -22 q 108 -31 111 -31 q 103 -32 104 -32 q 69 -14 92 -32 q 25 47 49 4 q 1 110 1 89 q 22 158 1 131 q 117 263 43 186 q 229 383 206 354 q 332 492 236 390 q 426 594 428 593 l 425 594 q 272 574 418 594 q 97 551 126 551 q 64 564 72 551 q 56 585 56 576 q 76 608 56 597 q 315 690 108 625 q 582 769 521 756 z "},"z":{"ha":818,"x_min":1,"x_max":817,"o":"m 582 769 q 639 778 619 778 q 685 764 665 778 q 703 749 700 756 q 707 726 707 742 q 694 667 707 707 q 665 601 681 628 q 483 390 643 564 q 444 349 467 372 q 410 311 422 325 q 393 293 397 297 l 378 276 l 428 294 q 531 333 439 299 q 647 379 622 367 q 717 403 676 394 q 757 408 744 408 q 778 403 767 408 q 803 393 792 393 q 817 356 817 393 q 806 303 817 321 q 799 289 799 292 q 782 250 799 283 q 742 207 765 219 q 590 146 719 194 q 297 36 572 139 q 114 -31 149 -22 q 108 -31 111 -31 q 103 -32 104 -32 q 69 -14 92 -32 q 25 47 49 4 q 1 110 1 89 q 22 158 1 131 q 117 263 43 186 q 229 383 206 354 q 332 492 236 390 q 426 594 428 593 l 425 594 q 272 574 418 594 q 97 551 126 551 q 64 564 72 551 q 56 585 56 576 q 76 608 56 597 q 315 690 108 625 q 582 769 521 756 z "},"[":{"ha":658,"x_min":1,"x_max":658,"o":"m 419 806 q 442 808 425 808 q 482 803 476 808 q 483 797 483 801 q 436 749 483 775 q 282 674 388 721 q 161 615 169 624 q 167 574 160 611 q 202 362 169 558 q 239 150 235 165 l 290 164 q 456 210 328 172 q 600 242 569 242 q 636 232 621 242 q 658 193 658 219 q 637 114 658 164 q 599 53 615 64 q 500 22 590 47 q 310 -32 410 -4 q 208 -60 210 -60 l 176 -69 l 150 -49 q 104 15 126 -29 q 81 84 88 46 q 44 324 74 122 q 1 657 1 626 q 6 682 1 669 q 18 705 10 697 q 60 724 26 713 q 140 745 93 735 q 286 776 186 756 q 419 806 418 804 z "},"\\":{"ha":501,"x_min":1,"x_max":501,"o":"m 3 774 q 26 785 7 785 q 74 754 46 785 q 242 531 136 686 q 418 256 349 376 q 486 143 469 167 q 501 111 501 126 q 500 93 501 100 q 490 51 499 67 q 440 -33 458 -25 q 403 -22 425 -40 q 308 151 369 4 q 81 600 264 260 q 1 767 1 747 q 2 770 1 768 q 3 774 3 772 z "},"]":{"ha":668,"x_min":1,"x_max":668,"o":"m 306 849 q 374 860 350 860 q 431 846 400 860 q 466 813 454 833 q 496 732 478 792 q 611 458 529 624 l 668 344 l 667 297 q 647 207 667 250 q 588 126 622 150 q 428 56 553 101 q 222 -10 257 -10 q 138 68 179 -10 q 117 132 117 110 q 122 154 117 144 q 222 194 135 181 q 381 244 264 200 q 499 301 499 288 q 461 392 499 311 q 349 692 372 578 q 335 719 342 719 q 132 679 293 719 q 22 657 42 657 q 3 668 7 657 q 2 671 3 669 q 1 674 1 672 q 90 749 1 694 q 306 849 218 825 z "},"^":{"ha":504,"x_min":0,"x_max":504,"o":"m 135 868 q 183 878 181 878 q 199 869 192 878 q 215 860 208 860 q 269 807 226 860 q 397 663 332 729 q 488 585 461 597 q 502 574 500 579 q 504 544 504 568 q 497 497 504 508 q 492 487 496 494 q 484 468 489 479 q 476 450 479 457 q 433 406 456 406 q 424 407 426 406 q 321 488 397 414 q 185 639 244 563 l 161 671 l 111 578 q 18 447 42 447 l 15 447 q 0 481 0 451 q 7 519 0 494 q 76 800 71 754 q 89 851 81 844 q 135 868 99 861 z "},"_":{"ha":767,"x_min":1,"x_max":767,"o":"m 618 208 q 714 217 699 217 q 735 210 728 217 q 754 200 742 203 q 765 192 763 199 q 767 163 767 186 q 765 135 767 147 q 760 116 763 122 q 753 97 758 110 q 746 78 749 85 q 719 34 732 42 q 647 24 707 26 q 508 12 588 19 q 375 0 429 4 q 165 -25 301 -6 q 69 -36 92 -36 q 35 -28 46 -36 q 13 7 25 -19 q 1 39 1 29 q 4 51 1 43 q 140 119 18 82 q 417 178 261 156 q 618 208 578 204 z "},"`":{"ha":138,"x_min":1,"x_max":138,"o":"m 33 831 q 67 836 56 836 q 114 811 110 836 q 135 628 115 807 q 138 596 138 606 q 121 535 138 554 q 111 529 115 529 q 60 597 93 529 q 1 774 1 717 q 33 831 1 822 z "},"{":{"ha":758,"x_min":1,"x_max":758,"o":"m 304 807 q 422 818 351 818 q 496 811 472 818 q 513 801 510 806 q 517 785 517 797 q 514 767 517 771 q 496 763 511 764 q 362 737 431 757 q 265 694 293 717 q 253 681 254 685 q 257 667 251 676 q 315 599 272 642 q 368 529 368 544 l 368 511 q 350 428 368 474 l 333 389 l 372 372 q 451 317 424 350 q 519 190 478 283 q 544 143 539 147 q 549 142 546 142 q 589 161 557 142 q 700 200 653 200 q 739 192 722 200 q 756 180 753 186 q 758 153 758 174 q 732 69 758 122 q 688 1 710 25 q 626 -42 665 -24 q 551 -61 583 -61 q 394 79 463 -61 q 353 175 369 129 q 319 214 343 203 q 240 225 299 225 q 142 218 189 225 q 93 214 104 214 q 61 225 78 214 q 19 281 40 240 q 1 328 1 317 q 19 354 1 342 q 94 396 36 367 q 246 493 228 463 q 247 499 247 494 q 225 538 247 511 q 176 614 196 572 q 156 681 156 656 q 304 807 156 769 z "},"|":{"ha":194,"x_min":1,"x_max":194,"o":"m 14 782 q 39 790 22 790 q 63 782 56 790 q 149 354 75 767 q 189 150 182 172 q 194 118 194 135 q 165 29 194 88 q 135 -8 147 -7 l 132 -8 q 61 58 97 -8 q 36 139 38 101 q 31 215 36 147 q 22 329 25 283 q 1 699 1 614 q 14 782 1 769 z "},"}":{"ha":765,"x_min":1,"x_max":765,"o":"m 150 772 q 250 783 194 783 q 304 778 288 783 q 372 729 349 763 q 388 646 388 706 q 385 582 388 606 q 381 525 381 540 q 389 492 381 506 q 474 449 414 449 q 615 471 513 449 q 724 492 704 492 q 749 486 738 492 q 765 453 765 478 q 760 418 765 429 q 733 367 739 374 q 701 351 726 360 q 631 322 671 342 q 590 299 590 303 q 617 261 590 292 q 644 194 644 226 q 644 183 644 192 q 643 168 643 174 q 621 100 642 140 q 576 39 600 60 q 466 -26 539 6 q 335 -67 393 -58 q 304 -69 319 -69 q 275 -57 292 -69 q 244 -18 263 -49 q 225 33 225 13 q 246 58 225 54 q 264 67 264 61 q 296 75 264 69 q 412 111 340 81 q 506 165 483 142 l 521 182 l 497 222 q 463 290 469 272 q 443 318 451 318 q 394 333 426 318 q 344 365 361 349 q 301 431 319 390 q 282 506 282 471 q 293 590 282 528 q 304 668 304 651 q 301 694 304 689 q 279 708 297 700 q 200 719 253 719 q 71 694 100 719 q 44 677 65 689 q 13 665 24 665 q 6 668 8 665 q 1 681 1 675 q 22 708 1 692 q 76 748 56 738 q 150 772 96 758 z "},"~":{"ha":760,"x_min":1,"x_max":760,"o":"m 664 568 q 704 574 685 574 q 740 565 724 574 q 756 553 753 558 q 760 529 760 547 q 713 406 760 471 q 643 337 692 379 q 560 274 594 294 q 424 232 492 232 l 410 232 q 353 248 378 235 q 285 296 328 261 q 217 335 240 335 q 179 324 204 335 q 46 201 131 299 q 17 175 25 175 q 10 178 13 175 q 1 199 1 183 q 61 324 1 235 q 168 436 121 411 q 239 450 190 449 q 254 451 244 450 q 267 451 264 451 q 336 426 288 451 q 401 399 386 399 q 560 503 442 399 q 664 568 624 558 z "}," ":{"ha":264,"x_min":0,"x_max":0,"o":""},"ʼ":{"ha":150,"x_min":1,"x_max":150,"o":"m 78 914 q 86 916 81 914 q 93 918 92 918 q 121 907 101 918 l 143 894 l 147 682 q 150 532 150 543 q 142 443 150 468 q 126 417 132 417 q 57 547 92 417 q 21 726 40 611 q 1 871 1 840 q 15 896 1 889 q 78 914 28 903 z "},"Ё":{"ha":800,"x_min":1,"x_max":800,"o":"m 638 1154 q 681 1163 663 1163 q 717 1154 700 1163 q 732 1143 729 1147 q 735 1125 735 1139 l 735 1106 q 717 1049 733 1086 q 693 1010 701 1011 q 525 943 631 994 q 410 893 419 893 q 400 899 406 893 q 390 918 390 908 q 446 993 390 938 q 638 1154 588 1140 m 332 1101 q 381 1110 358 1110 q 419 1101 403 1110 q 435 1091 432 1096 q 438 1069 438 1086 q 435 1045 438 1057 q 428 1025 432 1033 q 419 1004 425 1017 q 411 985 414 992 q 376 947 401 958 q 242 857 343 931 q 107 768 119 771 q 93 778 100 768 q 76 817 76 797 q 81 833 76 828 q 147 917 88 846 q 254 1039 207 988 q 332 1101 303 1092 m 525 700 q 521 701 525 701 q 429 674 489 701 q 261 553 353 640 q 169 428 169 467 q 177 402 169 421 q 190 376 185 383 l 192 376 q 300 439 211 376 q 390 513 340 467 q 464 593 439 560 q 503 654 482 615 q 525 700 525 693 m 482 879 q 540 883 503 883 q 585 881 572 883 q 621 864 597 878 q 668 824 657 844 q 679 756 679 803 q 647 621 678 692 q 564 494 615 550 q 358 349 476 399 q 321 329 321 333 l 328 326 q 347 325 332 325 q 511 353 431 325 q 600 392 564 371 q 678 432 658 424 q 721 443 697 440 q 740 444 728 444 q 775 436 756 444 q 797 423 793 428 q 800 394 800 418 q 783 319 800 364 q 746 254 765 274 q 617 183 713 218 q 333 131 475 131 q 175 160 231 131 q 122 195 153 171 q 78 235 90 219 q 35 309 58 258 q 6 386 11 360 q 1 426 1 406 q 146 703 1 558 q 295 815 218 775 q 482 879 372 856 z "},"ё":{"ha":800,"x_min":1,"x_max":800,"o":"m 638 1154 q 681 1163 663 1163 q 717 1154 700 1163 q 732 1143 729 1147 q 735 1125 735 1139 l 735 1106 q 717 1049 733 1086 q 693 1010 701 1011 q 525 943 631 994 q 410 893 419 893 q 400 899 406 893 q 390 918 390 908 q 446 993 390 938 q 638 1154 588 1140 m 332 1101 q 381 1110 358 1110 q 419 1101 403 1110 q 435 1091 432 1096 q 438 1069 438 1086 q 435 1045 438 1057 q 428 1025 432 1033 q 419 1004 425 1017 q 411 985 414 992 q 376 947 401 958 q 242 857 343 931 q 107 768 119 771 q 93 778 100 768 q 76 817 76 797 q 81 833 76 828 q 147 917 88 846 q 254 1039 207 988 q 332 1101 303 1092 m 525 700 q 521 701 525 701 q 429 674 489 701 q 261 553 353 640 q 169 428 169 467 q 177 402 169 421 q 190 376 185 383 l 192 376 q 300 439 211 376 q 390 513 340 467 q 464 593 439 560 q 503 654 482 615 q 525 700 525 693 m 482 879 q 540 883 503 883 q 585 881 572 883 q 621 864 597 878 q 668 824 657 844 q 679 756 679 803 q 647 621 678 692 q 564 494 615 550 q 358 349 476 399 q 321 329 321 333 l 328 326 q 347 325 332 325 q 511 353 431 325 q 600 392 564 371 q 678 432 658 424 q 721 443 697 440 q 740 444 728 444 q 775 436 756 444 q 797 423 793 428 q 800 394 800 418 q 783 319 800 364 q 746 254 765 274 q 617 183 713 218 q 333 131 475 131 q 175 160 231 131 q 122 195 153 171 q 78 235 90 219 q 35 309 58 258 q 6 386 11 360 q 1 426 1 406 q 146 703 1 558 q 295 815 218 775 q 482 879 372 856 z "},"Є":{"ha":776,"x_min":1,"x_max":776,"o":"m 333 804 q 408 818 375 818 l 419 818 q 470 807 456 817 q 485 775 485 797 q 472 746 485 753 q 464 749 467 746 q 447 756 460 756 q 325 704 403 756 q 229 618 278 672 q 156 515 181 564 q 131 414 131 463 l 131 406 l 132 388 l 233 446 q 358 504 335 504 q 385 489 385 504 q 288 354 385 460 q 222 274 222 285 q 261 265 222 265 l 279 265 q 440 313 347 265 q 547 378 508 347 q 642 474 586 408 q 700 492 657 492 q 740 483 724 492 q 769 464 763 474 q 776 435 776 453 q 742 319 776 390 q 619 199 713 260 q 417 107 526 138 q 274 90 358 90 q 204 97 232 90 q 46 238 107 126 q 1 392 1 317 q 38 536 1 463 q 213 742 94 660 q 333 804 272 783 z "},"є":{"ha":776,"x_min":1,"x_max":776,"o":"m 333 804 q 408 818 375 818 l 419 818 q 470 807 456 817 q 485 775 485 797 q 472 746 485 753 q 464 749 467 746 q 447 756 460 756 q 325 704 403 756 q 229 618 278 672 q 156 515 181 564 q 131 414 131 463 l 131 406 l 132 388 l 233 446 q 358 504 335 504 q 385 489 385 504 q 288 354 385 460 q 222 274 222 285 q 261 265 222 265 l 279 265 q 440 313 347 265 q 547 378 508 347 q 642 474 586 408 q 700 492 657 492 q 740 483 724 492 q 769 464 763 474 q 776 435 776 453 q 742 319 776 390 q 619 199 713 260 q 417 107 526 138 q 274 90 358 90 q 204 97 232 90 q 46 238 107 126 q 1 392 1 317 q 38 536 1 463 q 213 742 94 660 q 333 804 272 783 z "},"І":{"ha":332,"x_min":1,"x_max":332,"o":"m 138 1131 q 171 1153 146 1144 q 222 1163 196 1163 q 263 1154 247 1163 q 278 1142 275 1147 q 282 1118 282 1136 q 236 1000 282 1068 q 170 892 218 974 q 119 803 122 810 q 64 710 117 790 q 42 690 51 690 q 17 713 32 690 q 1 751 1 736 q 56 939 1 775 q 97 1045 67 974 q 138 1131 128 1117 m 69 664 q 107 661 81 675 q 232 390 135 647 q 308 190 260 317 q 332 106 332 128 q 322 68 332 90 q 285 -1 290 3 q 278 -3 282 -3 l 274 -3 q 219 42 247 -3 q 181 146 192 86 q 118 414 178 167 q 67 654 67 632 q 69 664 67 661 z "},"і":{"ha":332,"x_min":1,"x_max":332,"o":"m 138 1131 q 171 1153 146 1144 q 222 1163 196 1163 q 263 1154 247 1163 q 278 1142 275 1147 q 282 1118 282 1136 q 236 1000 282 1068 q 170 892 218 974 q 119 803 122 810 q 64 710 117 790 q 42 690 51 690 q 17 713 32 690 q 1 751 1 736 q 56 939 1 775 q 97 1045 67 974 q 138 1131 128 1117 m 69 664 q 107 661 81 675 q 232 390 135 647 q 308 190 260 317 q 332 106 332 128 q 322 68 332 90 q 285 -1 290 3 q 278 -3 282 -3 l 274 -3 q 219 42 247 -3 q 181 146 192 86 q 118 414 178 167 q 67 654 67 632 q 69 664 67 661 z "},"Ї":{"ha":397,"x_min":1,"x_max":396,"o":"m 288 1254 q 336 1261 319 1261 q 375 1253 356 1261 q 396 1215 396 1243 q 380 1149 396 1190 q 347 1092 364 1107 q 246 954 336 1081 q 147 818 156 828 q 127 799 131 801 q 115 804 124 797 q 107 829 107 813 q 158 997 107 865 q 184 1065 168 1022 q 212 1136 200 1107 q 229 1181 224 1165 q 256 1244 251 1240 q 288 1254 258 1247 m 57 1161 q 125 1185 72 1185 q 163 1178 149 1185 q 178 1165 175 1171 q 182 1143 182 1160 q 153 1050 182 1114 q 106 936 129 997 q 28 772 44 785 q 10 775 18 764 q 1 811 1 786 q 15 939 1 843 q 57 1161 43 1142 m 86 710 q 119 701 100 724 q 282 311 154 661 q 326 160 326 188 q 304 85 326 143 q 271 50 290 50 q 242 64 257 50 q 205 117 222 81 q 182 188 188 154 q 153 329 179 215 q 82 690 82 638 q 86 710 82 708 z "},"ї":{"ha":397,"x_min":1,"x_max":396,"o":"m 288 1254 q 336 1261 319 1261 q 375 1253 356 1261 q 396 1215 396 1243 q 380 1149 396 1190 q 347 1092 364 1107 q 246 954 336 1081 q 147 818 156 828 q 127 799 131 801 q 115 804 124 797 q 107 829 107 813 q 158 997 107 865 q 184 1065 168 1022 q 212 1136 200 1107 q 229 1181 224 1165 q 256 1244 251 1240 q 288 1254 258 1247 m 57 1161 q 125 1185 72 1185 q 163 1178 149 1185 q 178 1165 175 1171 q 182 1143 182 1160 q 153 1050 182 1114 q 106 936 129 997 q 28 772 44 785 q 10 775 18 764 q 1 811 1 786 q 15 939 1 843 q 57 1161 43 1142 m 86 710 q 119 701 100 724 q 282 311 154 661 q 326 160 326 188 q 304 85 326 143 q 271 50 290 50 q 242 64 257 50 q 205 117 222 81 q 182 188 188 154 q 153 329 179 215 q 82 690 82 638 q 86 710 82 708 z "},"Ў":{"ha":721,"x_min":1,"x_max":721,"o":"m 572 1088 q 625 1099 610 1099 q 657 1089 638 1099 q 675 1057 675 1079 q 660 996 675 1036 q 600 915 644 957 q 433 806 529 847 q 246 765 336 765 q 111 826 143 765 q 104 851 104 839 q 124 871 104 871 q 149 865 129 871 q 176 861 161 861 q 325 908 236 861 q 488 1029 414 956 q 572 1088 533 1075 m 576 764 q 621 772 611 772 q 654 758 632 772 q 713 633 697 735 q 721 483 721 579 q 713 340 721 389 q 651 156 696 247 q 557 21 607 64 q 449 -41 513 -18 q 325 -64 385 -64 q 265 -57 288 -64 q 150 44 199 -40 q 111 157 111 117 q 114 183 111 167 q 129 222 121 211 q 160 238 138 232 q 206 246 193 246 q 232 238 217 246 q 258 194 250 228 q 281 148 267 161 q 326 132 296 135 l 338 132 q 458 192 397 132 q 542 339 518 249 q 560 479 560 411 q 557 493 560 493 q 531 461 554 493 q 322 296 438 338 q 249 283 286 283 q 171 300 206 283 q 81 379 124 322 q 15 501 38 436 q 1 596 1 542 q 36 718 1 696 q 58 726 49 726 q 79 707 76 726 q 74 690 82 690 q 69 663 69 690 l 69 639 q 96 538 72 583 q 207 429 143 444 q 229 426 217 426 q 265 439 242 426 q 472 671 369 492 q 524 744 507 733 q 576 764 543 757 z "},"ў":{"ha":721,"x_min":1,"x_max":721,"o":"m 572 1088 q 625 1099 610 1099 q 657 1089 638 1099 q 675 1057 675 1079 q 660 996 675 1036 q 600 915 644 957 q 433 806 529 847 q 246 765 336 765 q 111 826 143 765 q 104 851 104 839 q 124 871 104 871 q 149 865 129 871 q 176 861 161 861 q 325 908 236 861 q 488 1029 414 956 q 572 1088 533 1075 m 576 764 q 621 772 611 772 q 654 758 632 772 q 713 633 697 735 q 721 483 721 579 q 713 340 721 389 q 651 156 696 247 q 557 21 607 64 q 449 -41 513 -18 q 325 -64 385 -64 q 265 -57 288 -64 q 150 44 199 -40 q 111 157 111 117 q 114 183 111 167 q 129 222 121 211 q 160 238 138 232 q 206 246 193 246 q 232 238 217 246 q 258 194 250 228 q 281 148 267 161 q 326 132 296 135 l 338 132 q 458 192 397 132 q 542 339 518 249 q 560 479 560 411 q 557 493 560 493 q 531 461 554 493 q 322 296 438 338 q 249 283 286 283 q 171 300 206 283 q 81 379 124 322 q 15 501 38 436 q 1 596 1 542 q 36 718 1 696 q 58 726 49 726 q 79 707 76 726 q 74 690 82 690 q 69 663 69 690 l 69 639 q 96 538 72 583 q 207 429 143 444 q 229 426 217 426 q 265 439 242 426 q 472 671 369 492 q 524 744 507 733 q 576 764 543 757 z "},"А":{"ha":496,"x_min":1,"x_max":496,"o":"m 128 679 l 119 517 q 113 349 113 356 q 131 355 113 347 q 176 376 150 363 l 239 406 l 211 486 q 157 632 194 533 q 144 665 151 646 q 133 692 138 683 l 131 701 l 128 679 m 20 945 q 25 955 20 945 q 64 972 31 964 q 117 981 97 981 q 164 968 142 981 q 197 942 185 957 q 228 889 208 926 q 368 536 265 817 q 398 469 386 486 q 429 446 410 451 q 443 411 443 442 q 438 375 443 392 q 435 360 435 364 q 464 261 435 342 q 496 150 496 171 q 471 61 496 114 q 428 8 446 8 q 397 26 418 8 q 303 210 350 64 l 283 268 l 217 256 q 126 239 128 239 q 107 231 110 236 q 92 110 104 224 q 75 17 85 39 q 57 -3 67 -3 q 36 19 47 -3 q 24 73 28 35 q 14 249 19 111 q 1 750 1 560 q 4 869 1 847 q 20 945 10 926 z "},"а":{"ha":496,"x_min":1,"x_max":496,"o":"m 128 679 l 119 517 q 113 349 113 356 q 131 355 113 347 q 176 376 150 363 l 239 406 l 211 486 q 157 632 194 533 q 144 665 151 646 q 133 692 138 683 l 131 701 l 128 679 m 20 945 q 25 955 20 945 q 64 972 31 964 q 117 981 97 981 q 164 968 142 981 q 197 942 185 957 q 228 889 208 926 q 368 536 265 817 q 398 469 386 486 q 429 446 410 451 q 443 411 443 442 q 438 375 443 392 q 435 360 435 364 q 464 261 435 342 q 496 150 496 171 q 471 61 496 114 q 428 8 446 8 q 397 26 418 8 q 303 210 350 64 l 283 268 l 217 256 q 126 239 128 239 q 107 231 110 236 q 92 110 104 224 q 75 17 85 39 q 57 -3 67 -3 q 36 19 47 -3 q 24 73 28 35 q 14 249 19 111 q 1 750 1 560 q 4 869 1 847 q 20 945 10 926 z "},"Б":{"ha":815,"x_min":1,"x_max":814,"o":"m 601 335 q 488 351 551 351 q 288 322 403 351 q 241 308 251 313 q 231 296 231 303 q 254 235 231 276 q 297 174 278 193 l 319 151 l 371 151 q 420 155 406 151 q 471 175 435 158 q 558 226 525 203 q 612 278 583 246 q 640 318 640 310 q 601 335 640 322 m 617 849 q 638 854 624 854 q 674 844 656 854 q 690 832 686 838 q 693 807 693 826 q 676 744 693 781 q 643 693 660 707 q 267 654 597 657 q 118 647 118 654 q 142 565 118 643 q 168 485 167 486 q 183 486 172 481 q 369 533 225 510 q 508 544 431 544 q 600 538 571 544 q 724 487 663 524 q 803 415 786 450 q 814 357 814 393 q 786 235 814 301 q 714 121 758 169 q 560 15 653 56 q 383 -25 468 -25 q 288 -7 328 -25 q 107 276 164 50 q 72 450 90 342 q 49 614 53 558 q 43 654 46 647 q 31 664 40 661 q 10 677 19 667 q 1 697 1 688 q 4 706 1 700 q 25 714 13 714 q 36 718 33 714 q 40 739 39 722 q 44 760 42 757 q 63 764 47 764 q 100 731 88 764 q 104 729 101 729 q 295 760 135 729 q 503 806 456 790 q 558 829 517 810 q 596 843 589 843 q 617 849 608 843 z "},"б":{"ha":815,"x_min":1,"x_max":814,"o":"m 601 335 q 488 351 551 351 q 288 322 403 351 q 241 308 251 313 q 231 296 231 303 q 254 235 231 276 q 297 174 278 193 l 319 151 l 371 151 q 420 155 406 151 q 471 175 435 158 q 558 226 525 203 q 612 278 583 246 q 640 318 640 310 q 601 335 640 322 m 617 849 q 638 854 624 854 q 674 844 656 854 q 690 832 686 838 q 693 807 693 826 q 676 744 693 781 q 643 693 660 707 q 267 654 597 657 q 118 647 118 654 q 142 565 118 643 q 168 485 167 486 q 183 486 172 481 q 369 533 225 510 q 508 544 431 544 q 600 538 571 544 q 724 487 663 524 q 803 415 786 450 q 814 357 814 393 q 786 235 814 301 q 714 121 758 169 q 560 15 653 56 q 383 -25 468 -25 q 288 -7 328 -25 q 107 276 164 50 q 72 450 90 342 q 49 614 53 558 q 43 654 46 647 q 31 664 40 661 q 10 677 19 667 q 1 697 1 688 q 4 706 1 700 q 25 714 13 714 q 36 718 33 714 q 40 739 39 722 q 44 760 42 757 q 63 764 47 764 q 100 731 88 764 q 104 729 101 729 q 295 760 135 729 q 503 806 456 790 q 558 829 517 810 q 596 843 589 843 q 617 849 608 843 z "},"В":{"ha":817,"x_min":1,"x_max":817,"o":"m 539 310 q 415 317 497 317 q 304 311 349 317 q 250 293 281 307 l 222 279 l 244 242 q 314 156 269 200 q 400 96 358 108 q 464 85 433 85 q 538 106 497 85 q 621 172 589 132 q 653 246 653 211 q 648 272 653 265 q 617 288 643 278 q 539 310 576 303 m 278 682 q 261 684 271 683 q 240 686 251 685 q 225 688 229 688 l 211 688 q 114 675 114 688 q 131 573 114 658 q 153 479 147 488 q 181 479 158 472 q 253 518 201 486 q 329 572 306 550 q 372 616 353 593 q 390 647 390 639 l 389 650 q 343 667 383 656 q 278 682 303 679 m 158 881 l 169 881 q 190 882 181 882 q 217 881 197 882 q 246 881 236 881 q 353 867 310 878 q 451 831 396 857 q 543 766 519 796 q 567 682 567 736 q 535 547 567 617 q 522 513 519 515 l 569 501 q 726 438 660 482 q 808 339 793 393 q 817 265 817 310 q 808 186 817 219 q 769 88 797 139 q 714 8 742 36 q 608 -60 671 -35 q 479 -85 544 -85 q 263 7 363 -85 q 97 285 163 100 q 63 381 67 369 q 58 417 54 406 q 60 432 60 419 q 56 486 60 456 q 44 626 50 524 q 38 704 42 686 q 21 751 35 722 q 1 806 1 790 q 7 828 1 817 q 158 881 21 857 z "},"в":{"ha":817,"x_min":1,"x_max":817,"o":"m 539 310 q 415 317 497 317 q 304 311 349 317 q 250 293 281 307 l 222 279 l 244 242 q 314 156 269 200 q 400 96 358 108 q 464 85 433 85 q 538 106 497 85 q 621 172 589 132 q 653 246 653 211 q 648 272 653 265 q 617 288 643 278 q 539 310 576 303 m 278 682 q 261 684 271 683 q 240 686 251 685 q 225 688 229 688 l 211 688 q 114 675 114 688 q 131 573 114 658 q 153 479 147 488 q 181 479 158 472 q 253 518 201 486 q 329 572 306 550 q 372 616 353 593 q 390 647 390 639 l 389 650 q 343 667 383 656 q 278 682 303 679 m 158 881 l 169 881 q 190 882 181 882 q 217 881 197 882 q 246 881 236 881 q 353 867 310 878 q 451 831 396 857 q 543 766 519 796 q 567 682 567 736 q 535 547 567 617 q 522 513 519 515 l 569 501 q 726 438 660 482 q 808 339 793 393 q 817 265 817 310 q 808 186 817 219 q 769 88 797 139 q 714 8 742 36 q 608 -60 671 -35 q 479 -85 544 -85 q 263 7 363 -85 q 97 285 163 100 q 63 381 67 369 q 58 417 54 406 q 60 432 60 419 q 56 486 60 456 q 44 626 50 524 q 38 704 42 686 q 21 751 35 722 q 1 806 1 790 q 7 828 1 817 q 158 881 21 857 z "},"Г":{"ha":761,"x_min":1,"x_max":761,"o":"m 328 833 q 389 842 358 842 q 482 807 456 842 q 492 758 492 793 q 474 653 492 707 q 422 529 460 610 q 358 406 385 449 q 340 369 340 375 q 203 121 203 128 l 204 121 q 272 151 213 121 q 372 207 331 182 q 568 349 461 261 q 654 399 615 386 q 706 411 692 411 q 739 401 714 411 l 761 390 l 758 356 q 736 277 756 322 q 693 207 717 232 q 611 139 674 185 q 542 86 547 92 q 355 -22 496 46 q 150 -90 214 -90 q 49 -7 96 -90 q 19 82 19 44 q 52 190 19 125 q 174 397 85 254 q 240 507 240 506 q 281 579 240 511 q 351 715 351 701 l 350 718 q 344 719 347 719 q 219 683 307 719 q 118 631 176 665 q 38 576 60 597 q 8 564 15 557 q 1 581 1 571 q 75 679 1 610 q 328 833 207 801 z "},"г":{"ha":761,"x_min":1,"x_max":761,"o":"m 328 833 q 389 842 358 842 q 482 807 456 842 q 492 758 492 793 q 474 653 492 707 q 422 529 460 610 q 358 406 385 449 q 340 369 340 375 q 203 121 203 128 l 204 121 q 272 151 213 121 q 372 207 331 182 q 568 349 461 261 q 654 399 615 386 q 706 411 692 411 q 739 401 714 411 l 761 390 l 758 356 q 736 277 756 322 q 693 207 717 232 q 611 139 674 185 q 542 86 547 92 q 355 -22 496 46 q 150 -90 214 -90 q 49 -7 96 -90 q 19 82 19 44 q 52 190 19 125 q 174 397 85 254 q 240 507 240 506 q 281 579 240 511 q 351 715 351 701 l 350 718 q 344 719 347 719 q 219 683 307 719 q 118 631 176 665 q 38 576 60 597 q 8 564 15 557 q 1 581 1 571 q 75 679 1 610 q 328 833 207 801 z "},"Д":{"ha":982,"x_min":1,"x_max":981,"o":"m 669 647 q 410 660 597 660 q 328 657 361 660 l 294 653 l 347 457 l 401 260 q 575 357 407 254 q 733 473 664 413 q 824 572 803 533 l 836 597 l 819 606 q 669 647 775 629 m 476 778 q 579 781 503 781 q 786 769 726 781 q 870 742 824 763 q 940 704 917 722 q 981 607 981 672 q 975 560 981 581 q 906 409 951 474 q 778 278 861 344 q 461 78 631 163 q 404 43 413 56 q 381 31 394 31 q 315 10 369 31 q 182 -24 229 -24 q 172 -22 175 -24 q 111 34 140 -11 q 82 114 82 79 q 88 135 82 124 q 144 154 92 142 q 244 186 199 168 q 289 213 289 204 q 275 415 289 307 q 247 583 261 522 l 232 643 q 228 644 231 644 q 155 633 211 644 q 67 610 99 621 q 21 597 26 597 q 10 603 14 597 q 1 625 1 614 q 155 712 1 663 q 476 778 308 761 z "},"д":{"ha":982,"x_min":1,"x_max":981,"o":"m 669 647 q 410 660 597 660 q 328 657 361 660 l 294 653 l 347 457 l 401 260 q 575 357 407 254 q 733 473 664 413 q 824 572 803 533 l 836 597 l 819 606 q 669 647 775 629 m 476 778 q 579 781 503 781 q 786 769 726 781 q 870 742 824 763 q 940 704 917 722 q 981 607 981 672 q 975 560 981 581 q 906 409 951 474 q 778 278 861 344 q 461 78 631 163 q 404 43 413 56 q 381 31 394 31 q 315 10 369 31 q 182 -24 229 -24 q 172 -22 175 -24 q 111 34 140 -11 q 82 114 82 79 q 88 135 82 124 q 144 154 92 142 q 244 186 199 168 q 289 213 289 204 q 275 415 289 307 q 247 583 261 522 l 232 643 q 228 644 231 644 q 155 633 211 644 q 67 610 99 621 q 21 597 26 597 q 10 603 14 597 q 1 625 1 614 q 155 712 1 663 q 476 778 308 761 z "},"Е":{"ha":771,"x_min":1,"x_max":771,"o":"m 458 724 q 463 742 472 747 q 457 738 461 740 q 421 724 451 733 q 345 685 392 714 q 265 626 299 656 q 211 571 240 604 q 182 531 182 538 q 183 529 182 529 q 242 556 192 529 q 326 603 293 582 q 406 666 367 629 q 458 724 446 703 m 436 913 q 503 918 458 918 q 579 903 549 918 q 624 870 614 885 q 635 822 635 856 q 618 741 635 788 q 578 663 601 694 q 356 497 499 558 q 264 467 322 483 q 188 451 206 451 q 176 449 178 451 q 176 436 174 447 q 219 372 183 400 q 289 360 236 361 q 319 358 301 358 q 386 372 344 358 q 477 416 422 386 q 542 457 532 446 q 589 497 546 464 q 672 538 631 528 q 711 543 699 543 q 743 533 724 543 l 771 519 l 767 486 q 744 410 764 457 q 706 344 724 363 q 661 307 690 326 q 601 264 608 268 q 469 197 553 226 q 315 163 386 168 q 283 161 304 161 q 136 210 200 161 q 88 254 104 233 q 40 329 71 275 q 1 476 1 399 q 111 729 1 607 q 261 847 171 799 q 347 884 286 861 q 436 913 407 907 z "},"е":{"ha":771,"x_min":1,"x_max":771,"o":"m 458 724 q 463 742 472 747 q 457 738 461 740 q 421 724 451 733 q 345 685 392 714 q 265 626 299 656 q 211 571 240 604 q 182 531 182 538 q 183 529 182 529 q 242 556 192 529 q 326 603 293 582 q 406 666 367 629 q 458 724 446 703 m 436 913 q 503 918 458 918 q 579 903 549 918 q 624 870 614 885 q 635 822 635 856 q 618 741 635 788 q 578 663 601 694 q 356 497 499 558 q 264 467 322 483 q 188 451 206 451 q 176 449 178 451 q 176 436 174 447 q 219 372 183 400 q 289 360 236 361 q 319 358 301 358 q 386 372 344 358 q 477 416 422 386 q 542 457 532 446 q 589 497 546 464 q 672 538 631 528 q 711 543 699 543 q 743 533 724 543 l 771 519 l 767 486 q 744 410 764 457 q 706 344 724 363 q 661 307 690 326 q 601 264 608 268 q 469 197 553 226 q 315 163 386 168 q 283 161 304 161 q 136 210 200 161 q 88 254 104 233 q 40 329 71 275 q 1 476 1 399 q 111 729 1 607 q 261 847 171 799 q 347 884 286 861 q 436 913 407 907 z "},"Ж":{"ha":953,"x_min":1,"x_max":953,"o":"m 681 847 q 715 878 708 878 q 724 869 724 878 q 599 575 724 844 l 556 481 l 572 471 q 878 268 639 436 l 953 215 l 950 179 q 940 135 947 142 q 933 117 933 128 q 919 81 933 103 q 893 51 904 58 q 879 47 885 47 q 822 81 867 47 q 749 134 801 97 q 651 200 696 171 q 607 228 607 229 q 621 186 607 224 q 636 108 636 147 q 629 68 636 86 q 621 46 621 51 l 619 40 q 613 28 617 35 q 606 14 610 21 q 575 -14 592 -14 q 549 -3 561 -14 q 458 192 506 28 q 442 245 451 215 q 429 289 433 275 l 425 303 q 415 294 424 304 q 394 265 407 283 q 366 224 382 247 q 333 174 350 200 q 301 122 317 147 q 273 72 286 96 q 251 32 260 49 q 200 -32 219 -32 q 167 -13 188 -32 q 131 33 147 6 q 106 108 106 76 q 119 160 106 133 q 246 371 158 239 l 279 421 l 218 482 q 1 747 1 697 q 15 764 1 760 q 25 765 19 765 q 136 693 43 765 q 364 528 353 528 l 350 586 q 324 715 338 643 q 310 813 310 786 q 317 847 310 840 q 340 854 324 854 q 374 843 363 854 q 461 628 389 828 q 482 581 478 581 q 490 588 486 581 q 576 710 497 596 q 681 847 657 821 z "},"ж":{"ha":953,"x_min":1,"x_max":953,"o":"m 681 847 q 715 878 708 878 q 724 869 724 878 q 599 575 724 844 l 556 481 l 572 471 q 878 268 639 436 l 953 215 l 950 179 q 940 135 947 142 q 933 117 933 128 q 919 81 933 103 q 893 51 904 58 q 879 47 885 47 q 822 81 867 47 q 749 134 801 97 q 651 200 696 171 q 607 228 607 229 q 621 186 607 224 q 636 108 636 147 q 629 68 636 86 q 621 46 621 51 l 619 40 q 613 28 617 35 q 606 14 610 21 q 575 -14 592 -14 q 549 -3 561 -14 q 458 192 506 28 q 442 245 451 215 q 429 289 433 275 l 425 303 q 415 294 424 304 q 394 265 407 283 q 366 224 382 247 q 333 174 350 200 q 301 122 317 147 q 273 72 286 96 q 251 32 260 49 q 200 -32 219 -32 q 167 -13 188 -32 q 131 33 147 6 q 106 108 106 76 q 119 160 106 133 q 246 371 158 239 l 279 421 l 218 482 q 1 747 1 697 q 15 764 1 760 q 25 765 19 765 q 136 693 43 765 q 364 528 353 528 l 350 586 q 324 715 338 643 q 310 813 310 786 q 317 847 310 840 q 340 854 324 854 q 374 843 363 854 q 461 628 389 828 q 482 581 478 581 q 490 588 486 581 q 576 710 497 596 q 681 847 657 821 z "},"З":{"ha":842,"x_min":1,"x_max":842,"o":"m 276 889 q 368 900 317 900 q 444 886 418 900 q 488 853 478 869 q 497 796 497 836 q 483 714 497 754 l 471 675 l 553 672 q 651 662 619 669 q 736 628 683 654 q 818 563 794 597 q 842 471 842 528 q 796 303 842 393 q 735 222 778 267 q 654 156 693 178 q 310 61 496 61 q 293 62 304 61 q 276 63 282 63 q 122 101 181 68 q 26 200 63 133 q 1 276 1 247 q 10 303 1 292 q 47 319 15 310 q 100 329 79 329 q 137 319 114 329 q 160 303 160 310 q 214 272 160 285 q 333 258 268 258 q 424 268 389 258 q 515 305 460 278 q 600 357 569 332 q 647 405 622 374 q 672 446 672 436 q 574 475 672 460 q 521 479 549 479 q 292 422 408 479 q 239 399 244 399 q 207 419 232 399 q 182 446 182 440 q 165 479 182 453 q 144 529 150 503 q 143 540 143 533 q 203 611 143 554 q 292 706 263 668 l 318 739 l 299 735 q 150 660 215 717 q 58 526 85 604 q 47 517 57 517 q 22 535 36 517 q 10 588 10 551 q 29 679 10 632 q 276 889 100 843 z "},"з":{"ha":842,"x_min":1,"x_max":842,"o":"m 276 889 q 368 900 317 900 q 444 886 418 900 q 488 853 478 869 q 497 796 497 836 q 483 714 497 754 l 471 675 l 553 672 q 651 662 619 669 q 736 628 683 654 q 818 563 794 597 q 842 471 842 528 q 796 303 842 393 q 735 222 778 267 q 654 156 693 178 q 310 61 496 61 q 293 62 304 61 q 276 63 282 63 q 122 101 181 68 q 26 200 63 133 q 1 276 1 247 q 10 303 1 292 q 47 319 15 310 q 100 329 79 329 q 137 319 114 329 q 160 303 160 310 q 214 272 160 285 q 333 258 268 258 q 424 268 389 258 q 515 305 460 278 q 600 357 569 332 q 647 405 622 374 q 672 446 672 436 q 574 475 672 460 q 521 479 549 479 q 292 422 408 479 q 239 399 244 399 q 207 419 232 399 q 182 446 182 440 q 165 479 182 453 q 144 529 150 503 q 143 540 143 533 q 203 611 143 554 q 292 706 263 668 l 318 739 l 299 735 q 150 660 215 717 q 58 526 85 604 q 47 517 57 517 q 22 535 36 517 q 10 588 10 551 q 29 679 10 632 q 276 889 100 843 z "},"И":{"ha":947,"x_min":1,"x_max":947,"o":"m 347 849 q 410 860 383 860 q 500 818 463 860 q 618 628 517 796 q 932 143 896 158 q 947 121 947 136 q 946 99 947 108 q 917 10 942 60 q 871 -44 892 -44 q 835 -26 857 -44 q 486 515 783 15 l 425 614 q 401 515 421 610 q 333 226 379 410 q 272 6 294 67 q 224 -67 249 -56 q 186 -58 206 -75 q 126 38 153 -32 q 69 251 100 108 q 3 713 11 535 q 1 768 1 736 q 7 806 1 799 q 31 814 13 814 l 35 814 q 66 780 54 814 q 135 533 78 746 q 137 529 136 531 q 138 525 138 528 q 139 519 139 522 q 189 357 183 357 q 235 549 193 357 q 297 799 282 758 q 347 849 311 839 z "},"и":{"ha":947,"x_min":1,"x_max":947,"o":"m 347 849 q 410 860 383 860 q 500 818 463 860 q 618 628 517 796 q 932 143 896 158 q 947 121 947 136 q 946 99 947 108 q 917 10 942 60 q 871 -44 892 -44 q 835 -26 857 -44 q 486 515 783 15 l 425 614 q 401 515 421 610 q 333 226 379 410 q 272 6 294 67 q 224 -67 249 -56 q 186 -58 206 -75 q 126 38 153 -32 q 69 251 100 108 q 3 713 11 535 q 1 768 1 736 q 7 806 1 799 q 31 814 13 814 l 35 814 q 66 780 54 814 q 135 533 78 746 q 137 529 136 531 q 138 525 138 528 q 139 519 139 522 q 189 357 183 357 q 235 549 193 357 q 297 799 282 758 q 347 849 311 839 z "},"Й":{"ha":746,"x_min":1,"x_max":746,"o":"m 501 1289 q 549 1296 536 1296 q 583 1288 564 1296 q 606 1254 604 1278 l 606 1247 q 599 1206 606 1226 q 568 1140 581 1157 q 518 1093 556 1122 q 179 833 189 839 q 161 829 171 829 q 125 861 139 829 q 118 885 118 875 q 125 904 118 894 q 296 1101 153 951 q 454 1266 435 1249 q 501 1289 474 1283 m 388 844 q 404 847 401 847 q 436 833 411 847 q 485 778 464 819 q 586 549 507 738 q 655 384 611 489 q 707 260 699 279 q 746 136 746 168 q 735 82 746 118 q 682 4 710 4 q 642 26 664 4 q 583 120 617 51 q 472 378 550 189 q 385 576 389 576 l 379 561 q 362 510 374 544 q 342 451 350 476 q 179 44 225 96 q 156 32 167 32 q 119 53 140 32 q 81 108 97 75 q 61 158 65 139 q 53 242 57 176 q 6 733 32 549 q 1 775 1 763 q 6 793 1 789 q 33 801 14 801 q 69 790 58 801 q 108 691 85 775 q 147 532 131 607 q 164 457 163 457 q 193 544 167 457 q 252 724 219 632 q 301 824 285 815 q 388 844 310 828 z "},"й":{"ha":746,"x_min":1,"x_max":746,"o":"m 501 1289 q 549 1296 536 1296 q 583 1288 564 1296 q 606 1254 604 1278 l 606 1247 q 599 1206 606 1226 q 568 1140 581 1157 q 518 1093 556 1122 q 179 833 189 839 q 161 829 171 829 q 125 861 139 829 q 118 885 118 875 q 125 904 118 894 q 296 1101 153 951 q 454 1266 435 1249 q 501 1289 474 1283 m 388 844 q 404 847 401 847 q 436 833 411 847 q 485 778 464 819 q 586 549 507 738 q 655 384 611 489 q 707 260 699 279 q 746 136 746 168 q 735 82 746 118 q 682 4 710 4 q 642 26 664 4 q 583 120 617 51 q 472 378 550 189 q 385 576 389 576 l 379 561 q 362 510 374 544 q 342 451 350 476 q 179 44 225 96 q 156 32 167 32 q 119 53 140 32 q 81 108 97 75 q 61 158 65 139 q 53 242 57 176 q 6 733 32 549 q 1 775 1 763 q 6 793 1 789 q 33 801 14 801 q 69 790 58 801 q 108 691 85 775 q 147 532 131 607 q 164 457 163 457 q 193 544 167 457 q 252 724 219 632 q 301 824 285 815 q 388 844 310 828 z "},"К":{"ha":815,"x_min":1,"x_max":815,"o":"m 529 989 q 586 1000 568 1000 q 633 990 608 1000 q 653 978 650 983 q 656 949 656 972 q 575 701 656 901 q 499 500 517 554 l 475 433 l 519 388 q 668 261 563 346 q 794 168 774 176 l 815 160 l 811 121 q 808 90 810 100 q 800 69 806 81 q 790 46 794 58 q 740 -11 772 -11 q 718 -6 729 -11 q 615 71 700 4 q 467 190 529 138 l 403 246 l 388 207 q 292 67 332 67 q 214 139 254 67 q 122 414 186 188 q 67 606 101 486 q 26 746 32 726 q 1 847 1 826 q 3 853 1 851 q 24 860 8 860 q 54 849 43 860 q 268 361 94 808 q 271 358 268 358 q 331 533 275 358 q 407 739 344 575 q 489 949 469 903 q 506 978 500 972 q 529 989 513 985 z "},"к":{"ha":815,"x_min":1,"x_max":815,"o":"m 529 989 q 586 1000 568 1000 q 633 990 608 1000 q 653 978 650 983 q 656 949 656 972 q 575 701 656 901 q 499 500 517 554 l 475 433 l 519 388 q 668 261 563 346 q 794 168 774 176 l 815 160 l 811 121 q 808 90 810 100 q 800 69 806 81 q 790 46 794 58 q 740 -11 772 -11 q 718 -6 729 -11 q 615 71 700 4 q 467 190 529 138 l 403 246 l 388 207 q 292 67 332 67 q 214 139 254 67 q 122 414 186 188 q 67 606 101 486 q 26 746 32 726 q 1 847 1 826 q 3 853 1 851 q 24 860 8 860 q 54 849 43 860 q 268 361 94 808 q 271 358 268 358 q 331 533 275 358 q 407 739 344 575 q 489 949 469 903 q 506 978 500 972 q 529 989 513 985 z "},"Л":{"ha":692,"x_min":1,"x_max":692,"o":"m 60 910 q 111 918 97 918 q 129 910 122 918 q 149 901 138 901 q 181 865 157 901 q 557 340 347 590 q 626 264 604 285 q 671 233 647 243 l 692 224 l 689 188 q 685 153 688 165 q 674 126 682 142 q 663 99 667 111 q 614 50 643 50 q 610 51 613 50 q 607 51 608 51 q 552 88 593 54 q 479 157 511 121 q 271 422 404 238 q 238 468 257 442 q 208 509 218 494 q 194 528 197 524 l 183 542 l 181 504 q 171 378 176 446 q 114 64 153 147 q 83 32 97 32 q 79 33 81 32 q 76 101 76 36 l 76 147 l 76 193 q 57 567 76 376 q 13 825 38 758 q 1 865 1 850 q 60 910 1 897 z "},"л":{"ha":692,"x_min":1,"x_max":692,"o":"m 60 910 q 111 918 97 918 q 129 910 122 918 q 149 901 138 901 q 181 865 157 901 q 557 340 347 590 q 626 264 604 285 q 671 233 647 243 l 692 224 l 689 188 q 685 153 688 165 q 674 126 682 142 q 663 99 667 111 q 614 50 643 50 q 610 51 613 50 q 607 51 608 51 q 552 88 593 54 q 479 157 511 121 q 271 422 404 238 q 238 468 257 442 q 208 509 218 494 q 194 528 197 524 l 183 542 l 181 504 q 171 378 176 446 q 114 64 153 147 q 83 32 97 32 q 79 33 81 32 q 76 101 76 36 l 76 147 l 76 193 q 57 567 76 376 q 13 825 38 758 q 1 865 1 850 q 60 910 1 897 z "},"М":{"ha":1001,"x_min":1,"x_max":1003,"o":"m 78 947 q 110 953 108 953 q 128 944 122 953 q 146 936 136 936 q 171 917 157 936 q 335 631 174 913 q 500 343 496 349 q 513 324 510 324 q 533 415 517 324 q 615 836 599 774 q 633 869 622 863 q 690 883 643 875 q 724 888 714 888 q 760 878 739 888 q 785 863 779 869 q 796 836 790 857 q 875 522 836 689 q 972 142 964 149 q 1003 68 1003 118 q 1002 63 1003 67 q 1001 56 1001 58 q 997 22 1000 32 q 985 -6 994 13 q 971 -36 976 -25 q 936 -74 953 -74 q 897 -49 922 -74 q 782 169 817 29 l 714 456 q 674 244 694 360 q 633 40 644 86 q 603 -43 622 -6 q 565 -79 583 -79 q 526 -60 550 -79 q 478 15 504 -39 q 303 343 411 157 q 231 463 235 463 q 229 458 229 463 l 229 449 q 247 50 247 290 q 243 -40 247 -28 q 235 -47 239 -47 q 207 -15 224 -47 q 149 249 194 8 q 38 760 78 629 q 1 897 1 881 q 6 914 1 906 q 22 932 11 926 q 78 947 33 938 z "},"м":{"ha":1001,"x_min":1,"x_max":1003,"o":"m 78 947 q 110 953 108 953 q 128 944 122 953 q 146 936 136 936 q 171 917 157 936 q 335 631 174 913 q 500 343 496 349 q 513 324 510 324 q 533 415 517 324 q 615 836 599 774 q 633 869 622 863 q 690 883 643 875 q 724 888 714 888 q 760 878 739 888 q 785 863 779 869 q 796 836 790 857 q 875 522 836 689 q 972 142 964 149 q 1003 68 1003 118 q 1002 63 1003 67 q 1001 56 1001 58 q 997 22 1000 32 q 985 -6 994 13 q 971 -36 976 -25 q 936 -74 953 -74 q 897 -49 922 -74 q 782 169 817 29 l 714 456 q 674 244 694 360 q 633 40 644 86 q 603 -43 622 -6 q 565 -79 583 -79 q 526 -60 550 -79 q 478 15 504 -39 q 303 343 411 157 q 231 463 235 463 q 229 458 229 463 l 229 449 q 247 50 247 290 q 243 -40 247 -28 q 235 -47 239 -47 q 207 -15 224 -47 q 149 249 194 8 q 38 760 78 629 q 1 897 1 881 q 6 914 1 906 q 22 932 11 926 q 78 947 33 938 z "},"Н":{"ha":786,"x_min":1,"x_max":786,"o":"m 429 892 q 469 910 438 903 q 529 917 500 917 q 554 914 550 917 q 575 904 572 906 q 612 826 593 899 q 635 679 631 754 q 665 507 638 618 q 772 110 756 143 q 786 50 786 86 q 757 -60 786 3 q 722 -96 740 -96 q 688 -78 710 -96 q 582 163 633 -33 q 544 290 550 283 q 535 319 539 297 q 525 342 531 339 q 521 333 522 336 q 457 274 521 328 q 384 209 397 225 q 371 161 371 193 q 372 124 371 139 q 374 86 374 108 q 372 58 374 69 q 368 40 369 46 q 360 19 367 33 q 351 -3 354 6 q 331 -36 343 -22 q 311 -50 319 -50 q 256 6 285 -49 q 189 183 228 60 q 66 599 131 372 q 1 842 1 825 q 12 856 1 850 q 31 857 22 863 q 154 575 46 847 q 247 346 231 378 q 251 340 250 342 q 256 340 253 339 q 263 346 258 342 q 274 360 267 350 q 349 431 296 388 q 457 575 439 506 q 461 601 461 588 q 444 701 461 617 q 424 858 424 814 q 429 892 424 885 z "},"н":{"ha":786,"x_min":1,"x_max":786,"o":"m 429 892 q 469 910 438 903 q 529 917 500 917 q 554 914 550 917 q 575 904 572 906 q 612 826 593 899 q 635 679 631 754 q 665 507 638 618 q 772 110 756 143 q 786 50 786 86 q 757 -60 786 3 q 722 -96 740 -96 q 688 -78 710 -96 q 582 163 633 -33 q 544 290 550 283 q 535 319 539 297 q 525 342 531 339 q 521 333 522 336 q 457 274 521 328 q 384 209 397 225 q 371 161 371 193 q 372 124 371 139 q 374 86 374 108 q 372 58 374 69 q 368 40 369 46 q 360 19 367 33 q 351 -3 354 6 q 331 -36 343 -22 q 311 -50 319 -50 q 256 6 285 -49 q 189 183 228 60 q 66 599 131 372 q 1 842 1 825 q 12 856 1 850 q 31 857 22 863 q 154 575 46 847 q 247 346 231 378 q 251 340 250 342 q 256 340 253 339 q 263 346 258 342 q 274 360 267 350 q 349 431 296 388 q 457 575 439 506 q 461 601 461 588 q 444 701 461 617 q 424 858 424 814 q 429 892 424 885 z "},"О":{"ha":865,"x_min":1,"x_max":864,"o":"m 665 633 q 564 650 628 650 q 463 636 511 650 q 308 565 388 613 q 232 531 257 533 q 208 521 217 528 q 185 490 200 514 q 121 333 121 393 q 161 243 121 286 q 289 206 199 206 q 375 218 336 206 q 590 353 501 261 q 697 556 678 446 q 701 589 701 576 q 665 633 701 617 m 508 840 q 578 847 547 847 q 746 801 663 847 q 858 657 838 750 q 864 593 864 631 q 815 380 864 492 q 686 194 765 268 q 315 39 531 47 q 299 38 310 39 q 285 38 289 38 q 126 86 190 38 q 29 206 65 131 q 1 308 1 264 q 15 383 1 343 q 103 539 44 467 q 147 610 140 583 q 204 703 164 667 q 508 840 324 808 z "},"о":{"ha":865,"x_min":1,"x_max":864,"o":"m 665 633 q 564 650 628 650 q 463 636 511 650 q 308 565 388 613 q 232 531 257 533 q 208 521 217 528 q 185 490 200 514 q 121 333 121 393 q 161 243 121 286 q 289 206 199 206 q 375 218 336 206 q 590 353 501 261 q 697 556 678 446 q 701 589 701 576 q 665 633 701 617 m 508 840 q 578 847 547 847 q 746 801 663 847 q 858 657 838 750 q 864 593 864 631 q 815 380 864 492 q 686 194 765 268 q 315 39 531 47 q 299 38 310 39 q 285 38 289 38 q 126 86 190 38 q 29 206 65 131 q 1 308 1 264 q 15 383 1 343 q 103 539 44 467 q 147 610 140 583 q 204 703 164 667 q 508 840 324 808 z "},"П":{"ha":853,"x_min":1,"x_max":788,"o":"m 611 915 q 642 918 621 918 q 704 907 675 918 q 739 881 733 896 q 746 679 743 869 q 775 244 751 417 q 788 97 788 151 q 782 49 788 60 q 746 -22 757 -4 q 722 -40 735 -40 q 696 -28 713 -40 q 651 31 676 -12 q 629 81 635 60 q 614 165 624 101 q 575 664 575 435 l 575 715 l 560 713 q 398 685 521 703 q 254 668 275 668 q 255 660 253 668 q 262 640 257 653 q 272 614 267 628 q 348 364 318 510 q 378 111 378 218 q 364 8 378 40 q 335 -31 349 -31 q 319 -24 326 -31 q 267 114 292 0 q 82 633 188 479 q 1 797 1 751 q 14 825 1 814 q 182 857 43 850 q 398 880 261 861 q 611 915 535 899 z "},"п":{"ha":853,"x_min":1,"x_max":788,"o":"m 611 915 q 642 918 621 918 q 704 907 675 918 q 739 881 733 896 q 746 679 743 869 q 775 244 751 417 q 788 97 788 151 q 782 49 788 60 q 746 -22 757 -4 q 722 -40 735 -40 q 696 -28 713 -40 q 651 31 676 -12 q 629 81 635 60 q 614 165 624 101 q 575 664 575 435 l 575 715 l 560 713 q 398 685 521 703 q 254 668 275 668 q 255 660 253 668 q 262 640 257 653 q 272 614 267 628 q 348 364 318 510 q 378 111 378 218 q 364 8 378 40 q 335 -31 349 -31 q 319 -24 326 -31 q 267 114 292 0 q 82 633 188 479 q 1 797 1 751 q 14 825 1 814 q 182 857 43 850 q 398 880 261 861 q 611 915 535 899 z "},"Р":{"ha":713,"x_min":1,"x_max":713,"o":"m 314 956 q 361 958 336 958 q 475 950 425 958 q 571 915 517 942 q 653 863 625 888 q 697 804 685 831 q 713 715 713 774 q 699 618 713 660 q 660 526 686 578 q 614 450 635 475 q 483 347 561 385 q 397 315 449 329 q 314 300 344 300 q 253 319 278 300 q 207 383 229 338 q 188 436 188 424 q 189 447 188 443 q 214 472 194 464 q 293 489 233 479 q 394 522 347 497 q 499 603 457 554 q 546 699 540 651 q 547 706 546 701 q 547 713 547 711 q 526 736 547 722 q 379 776 468 769 q 354 778 371 778 q 208 741 274 778 q 138 653 143 704 q 136 624 136 644 q 219 242 136 531 q 271 38 268 78 q 272 21 272 32 q 254 -19 272 -19 l 253 -19 q 165 146 240 -17 q 57 399 89 308 q 1 654 1 557 q 31 789 1 726 q 314 956 93 921 z "},"р":{"ha":713,"x_min":1,"x_max":713,"o":"m 314 956 q 361 958 336 958 q 475 950 425 958 q 571 915 517 942 q 653 863 625 888 q 697 804 685 831 q 713 715 713 774 q 699 618 713 660 q 660 526 686 578 q 614 450 635 475 q 483 347 561 385 q 397 315 449 329 q 314 300 344 300 q 253 319 278 300 q 207 383 229 338 q 188 436 188 424 q 189 447 188 443 q 214 472 194 464 q 293 489 233 479 q 394 522 347 497 q 499 603 457 554 q 546 699 540 651 q 547 706 546 701 q 547 713 547 711 q 526 736 547 722 q 379 776 468 769 q 354 778 371 778 q 208 741 274 778 q 138 653 143 704 q 136 624 136 644 q 219 242 136 531 q 271 38 268 78 q 272 21 272 32 q 254 -19 272 -19 l 253 -19 q 165 146 240 -17 q 57 399 89 308 q 1 654 1 557 q 31 789 1 726 q 314 956 93 921 z "},"С":{"ha":900,"x_min":1,"x_max":900,"o":"m 510 865 q 569 869 531 869 l 583 869 q 682 843 639 868 q 735 785 725 818 q 740 742 740 767 q 701 619 740 675 q 611 563 661 563 l 588 563 l 608 586 q 657 690 650 633 q 658 699 657 693 q 658 706 658 704 q 647 724 658 721 q 594 726 636 726 q 406 664 511 726 q 263 538 336 624 q 171 394 189 453 q 161 332 161 361 q 203 197 161 258 q 414 104 267 104 q 467 107 453 104 q 510 124 482 110 q 619 203 579 157 q 700 346 658 250 q 746 435 733 422 q 803 454 756 444 q 847 461 832 461 q 863 456 857 461 q 882 446 872 446 q 900 410 900 446 q 897 383 900 403 q 837 226 889 338 q 750 68 785 115 q 613 -42 699 -1 q 425 -89 528 -83 q 412 -90 421 -89 q 399 -90 403 -90 q 115 36 236 -90 q 61 117 94 58 q 17 210 28 175 q 1 315 1 256 q 119 631 1 475 q 510 865 263 819 z "},"с":{"ha":900,"x_min":1,"x_max":900,"o":"m 510 865 q 569 869 531 869 l 583 869 q 682 843 639 868 q 735 785 725 818 q 740 742 740 767 q 701 619 740 675 q 611 563 661 563 l 588 563 l 608 586 q 657 690 650 633 q 658 699 657 693 q 658 706 658 704 q 647 724 658 721 q 594 726 636 726 q 406 664 511 726 q 263 538 336 624 q 171 394 189 453 q 161 332 161 361 q 203 197 161 258 q 414 104 267 104 q 467 107 453 104 q 510 124 482 110 q 619 203 579 157 q 700 346 658 250 q 746 435 733 422 q 803 454 756 444 q 847 461 832 461 q 863 456 857 461 q 882 446 872 446 q 900 410 900 446 q 897 383 900 403 q 837 226 889 338 q 750 68 785 115 q 613 -42 699 -1 q 425 -89 528 -83 q 412 -90 421 -89 q 399 -90 403 -90 q 115 36 236 -90 q 61 117 94 58 q 17 210 28 175 q 1 315 1 256 q 119 631 1 475 q 510 865 263 819 z "},"Т":{"ha":939,"x_min":1,"x_max":939,"o":"m 11 781 q 35 789 19 789 q 64 776 53 789 q 104 678 78 758 q 136 592 135 592 q 149 619 138 592 q 180 683 160 647 q 221 733 200 718 q 289 760 242 747 q 371 772 336 772 q 442 754 406 772 q 521 690 492 729 l 536 668 l 543 682 q 624 722 558 707 q 685 731 664 731 q 735 717 708 731 q 776 688 764 700 q 807 644 789 676 q 921 260 875 525 q 939 117 939 161 q 929 69 939 89 q 914 31 917 38 q 871 -17 897 -17 q 800 53 838 -17 q 776 108 783 82 q 754 225 769 133 q 678 519 721 415 l 671 536 l 665 519 q 658 303 658 501 q 650 93 658 106 q 635 51 642 79 q 593 3 619 3 q 558 23 583 3 q 532 50 532 43 q 519 78 532 56 q 476 214 496 117 q 400 551 418 517 q 357 579 386 579 q 347 578 350 579 q 314 556 335 575 q 294 531 293 538 q 288 483 294 521 q 279 282 279 442 q 282 119 279 231 q 283 69 283 97 q 268 0 283 36 q 215 -68 240 -68 q 160 -21 192 -68 q 113 85 128 26 q 44 438 86 183 q 1 753 1 693 q 11 781 1 774 z "},"т":{"ha":939,"x_min":1,"x_max":939,"o":"m 11 781 q 35 789 19 789 q 64 776 53 789 q 104 678 78 758 q 136 592 135 592 q 149 619 138 592 q 180 683 160 647 q 221 733 200 718 q 289 760 242 747 q 371 772 336 772 q 442 754 406 772 q 521 690 492 729 l 536 668 l 543 682 q 624 722 558 707 q 685 731 664 731 q 735 717 708 731 q 776 688 764 700 q 807 644 789 676 q 921 260 875 525 q 939 117 939 161 q 929 69 939 89 q 914 31 917 38 q 871 -17 897 -17 q 800 53 838 -17 q 776 108 783 82 q 754 225 769 133 q 678 519 721 415 l 671 536 l 665 519 q 658 303 658 501 q 650 93 658 106 q 635 51 642 79 q 593 3 619 3 q 558 23 583 3 q 532 50 532 43 q 519 78 532 56 q 476 214 496 117 q 400 551 418 517 q 357 579 386 579 q 347 578 350 579 q 314 556 335 575 q 294 531 293 538 q 288 483 294 521 q 279 282 279 442 q 282 119 279 231 q 283 69 283 97 q 268 0 283 36 q 215 -68 240 -68 q 160 -21 192 -68 q 113 85 128 26 q 44 438 86 183 q 1 753 1 693 q 11 781 1 774 z "},"У":{"ha":726,"x_min":1,"x_max":726,"o":"m 531 826 q 594 836 564 836 q 618 831 614 836 q 632 825 621 825 q 672 782 654 825 q 717 594 690 740 q 726 449 726 526 q 717 321 726 369 q 606 93 682 172 q 383 8 522 8 q 150 92 244 8 q 95 164 124 114 q 63 242 67 214 q 62 249 63 244 q 61 254 61 253 q 73 285 61 274 q 115 303 85 296 q 168 311 151 311 q 196 304 182 311 q 206 299 200 301 q 216 294 213 296 q 223 289 219 293 q 228 278 226 285 q 251 247 229 264 q 296 221 272 229 q 375 208 326 211 q 388 208 379 208 q 399 207 396 207 q 450 217 429 207 q 497 254 471 226 q 561 443 561 318 q 560 486 561 471 q 553 551 554 551 q 521 515 543 551 q 251 325 389 325 q 199 332 221 325 q 138 364 171 340 q 83 414 106 388 q 42 483 65 438 q 11 561 19 529 q 1 644 1 596 q 29 763 1 732 q 57 774 38 774 q 83 761 78 774 q 88 747 89 750 q 76 743 88 743 q 65 731 65 743 q 68 696 65 729 q 119 544 74 613 q 222 472 168 472 q 260 482 242 472 q 328 539 286 496 q 396 621 371 582 q 460 742 417 654 l 497 818 l 531 826 z "},"у":{"ha":726,"x_min":1,"x_max":726,"o":"m 531 826 q 594 836 564 836 q 618 831 614 836 q 632 825 621 825 q 672 782 654 825 q 717 594 690 740 q 726 449 726 526 q 717 321 726 369 q 606 93 682 172 q 383 8 522 8 q 150 92 244 8 q 95 164 124 114 q 63 242 67 214 q 62 249 63 244 q 61 254 61 253 q 73 285 61 274 q 115 303 85 296 q 168 311 151 311 q 196 304 182 311 q 206 299 200 301 q 216 294 213 296 q 223 289 219 293 q 228 278 226 285 q 251 247 229 264 q 296 221 272 229 q 375 208 326 211 q 388 208 379 208 q 399 207 396 207 q 450 217 429 207 q 497 254 471 226 q 561 443 561 318 q 560 486 561 471 q 553 551 554 551 q 521 515 543 551 q 251 325 389 325 q 199 332 221 325 q 138 364 171 340 q 83 414 106 388 q 42 483 65 438 q 11 561 19 529 q 1 644 1 596 q 29 763 1 732 q 57 774 38 774 q 83 761 78 774 q 88 747 89 750 q 76 743 88 743 q 65 731 65 743 q 68 696 65 729 q 119 544 74 613 q 222 472 168 472 q 260 482 242 472 q 328 539 286 496 q 396 621 371 582 q 460 742 417 654 l 497 818 l 531 826 z "},"Ф":{"ha":864,"x_min":1,"x_max":864,"o":"m 610 511 q 525 533 546 533 q 519 531 519 533 q 553 437 519 525 q 589 344 586 349 q 592 343 590 343 q 650 396 606 343 q 694 467 694 449 q 610 511 694 479 m 393 374 q 339 515 343 507 l 329 533 l 283 494 q 150 342 197 422 q 135 294 135 314 q 157 242 135 271 q 247 207 182 207 q 261 208 251 207 q 276 208 271 208 q 363 223 313 211 q 432 247 413 235 q 435 253 435 250 q 393 374 435 261 m 365 728 q 447 735 393 735 q 594 719 526 735 q 776 644 701 694 q 861 540 851 594 q 864 506 864 518 q 817 335 864 428 q 700 188 769 243 q 646 135 651 149 q 621 72 624 82 q 579 25 604 25 q 525 63 556 25 l 510 79 l 451 61 q 269 31 350 31 q 40 161 113 31 q 1 281 1 231 q 29 379 1 321 q 240 596 83 494 l 290 628 l 285 653 q 288 694 279 682 q 308 713 296 707 q 365 728 321 718 z "},"ф":{"ha":864,"x_min":1,"x_max":864,"o":"m 610 511 q 525 533 546 533 q 519 531 519 533 q 553 437 519 525 q 589 344 586 349 q 592 343 590 343 q 650 396 606 343 q 694 467 694 449 q 610 511 694 479 m 393 374 q 339 515 343 507 l 329 533 l 283 494 q 150 342 197 422 q 135 294 135 314 q 157 242 135 271 q 247 207 182 207 q 261 208 251 207 q 276 208 271 208 q 363 223 313 211 q 432 247 413 235 q 435 253 435 250 q 393 374 435 261 m 365 728 q 447 735 393 735 q 594 719 526 735 q 776 644 701 694 q 861 540 851 594 q 864 506 864 518 q 817 335 864 428 q 700 188 769 243 q 646 135 651 149 q 621 72 624 82 q 579 25 604 25 q 525 63 556 25 l 510 79 l 451 61 q 269 31 350 31 q 40 161 113 31 q 1 281 1 231 q 29 379 1 321 q 240 596 83 494 l 290 628 l 285 653 q 288 694 279 682 q 308 713 296 707 q 365 728 321 718 z "},"Х":{"ha":821,"x_min":1,"x_max":821,"o":"m 117 126 q 163 238 117 149 q 256 406 210 328 l 301 483 l 289 492 q 248 517 275 500 q 200 549 221 535 q 47 655 83 624 q 3 714 10 686 q 1 725 1 718 q 47 746 1 746 q 101 735 74 746 q 239 675 129 725 l 393 603 l 440 649 q 624 810 535 743 q 735 856 672 846 q 764 858 746 858 q 788 851 782 858 q 807 842 794 844 q 821 814 819 840 l 821 807 q 794 713 821 776 q 726 647 786 692 q 594 539 667 603 q 522 468 522 475 q 585 376 522 463 q 715 182 679 243 q 751 89 751 121 q 749 69 751 75 q 740 61 747 61 q 585 210 736 61 q 429 358 435 358 q 369 262 424 358 q 310 144 315 165 q 303 124 308 139 q 296 104 297 108 q 257 22 282 58 q 214 -15 232 -15 q 153 38 189 -15 q 117 126 117 90 z "},"х":{"ha":821,"x_min":1,"x_max":821,"o":"m 117 126 q 163 238 117 149 q 256 406 210 328 l 301 483 l 289 492 q 248 517 275 500 q 200 549 221 535 q 47 655 83 624 q 3 714 10 686 q 1 725 1 718 q 47 746 1 746 q 101 735 74 746 q 239 675 129 725 l 393 603 l 440 649 q 624 810 535 743 q 735 856 672 846 q 764 858 746 858 q 788 851 782 858 q 807 842 794 844 q 821 814 819 840 l 821 807 q 794 713 821 776 q 726 647 786 692 q 594 539 667 603 q 522 468 522 475 q 585 376 522 463 q 715 182 679 243 q 751 89 751 121 q 749 69 751 75 q 740 61 747 61 q 585 210 736 61 q 429 358 435 358 q 369 262 424 358 q 310 144 315 165 q 303 124 308 139 q 296 104 297 108 q 257 22 282 58 q 214 -15 232 -15 q 153 38 189 -15 q 117 126 117 90 z "},"Ц":{"ha":846,"x_min":1,"x_max":846,"o":"m 439 851 q 485 858 467 858 q 553 826 532 858 q 646 511 571 801 q 671 358 671 413 l 671 307 l 692 318 q 751 338 711 329 q 788 343 775 343 q 818 333 799 343 q 841 316 838 322 q 846 288 844 310 l 846 272 q 800 64 846 238 q 739 -128 760 -89 q 707 -156 724 -156 q 682 -146 696 -156 q 642 -100 665 -135 q 613 -40 619 -65 q 610 -22 610 -29 q 638 92 610 -1 q 646 132 646 119 q 644 135 646 135 q 605 122 636 135 q 554 96 574 108 q 394 19 506 65 q 211 -44 283 -26 q 144 -54 174 -54 q 78 -33 104 -54 q 26 35 51 -12 q 6 85 10 68 q 1 142 1 103 q 13 428 1 199 q 33 731 25 657 q 38 761 35 756 q 50 767 40 767 q 67 757 64 767 q 97 425 78 719 q 119 158 113 207 q 138 108 125 108 l 140 108 q 144 110 143 110 q 374 208 203 126 q 478 274 446 243 q 504 305 500 296 q 508 339 508 314 q 439 632 508 382 q 397 801 397 786 q 439 851 397 842 z "},"ц":{"ha":846,"x_min":1,"x_max":846,"o":"m 439 851 q 485 858 467 858 q 553 826 532 858 q 646 511 571 801 q 671 358 671 413 l 671 307 l 692 318 q 751 338 711 329 q 788 343 775 343 q 818 333 799 343 q 841 316 838 322 q 846 288 844 310 l 846 272 q 800 64 846 238 q 739 -128 760 -89 q 707 -156 724 -156 q 682 -146 696 -156 q 642 -100 665 -135 q 613 -40 619 -65 q 610 -22 610 -29 q 638 92 610 -1 q 646 132 646 119 q 644 135 646 135 q 605 122 636 135 q 554 96 574 108 q 394 19 506 65 q 211 -44 283 -26 q 144 -54 174 -54 q 78 -33 104 -54 q 26 35 51 -12 q 6 85 10 68 q 1 142 1 103 q 13 428 1 199 q 33 731 25 657 q 38 761 35 756 q 50 767 40 767 q 67 757 64 767 q 97 425 78 719 q 119 158 113 207 q 138 108 125 108 l 140 108 q 144 110 143 110 q 374 208 203 126 q 478 274 446 243 q 504 305 500 296 q 508 339 508 314 q 439 632 508 382 q 397 801 397 786 q 439 851 397 842 z "},"Ч":{"ha":654,"x_min":1,"x_max":654,"o":"m 82 796 q 107 804 97 804 q 120 803 111 804 q 135 801 129 801 q 142 794 142 801 q 128 764 142 782 q 100 638 100 724 q 110 551 100 589 q 167 424 125 486 q 247 351 210 363 q 267 349 261 349 q 333 390 297 349 q 421 653 421 486 l 421 667 q 420 685 421 674 q 419 701 419 697 q 431 749 419 739 q 489 769 443 760 q 533 776 518 776 q 549 771 543 776 q 569 761 558 761 q 590 663 590 761 q 614 379 590 592 q 649 139 638 167 q 654 106 654 126 q 619 -7 654 61 q 583 -43 601 -43 q 553 -29 571 -43 q 510 29 532 -11 q 468 181 481 83 q 458 246 461 218 l 456 267 l 426 239 q 288 181 364 181 q 208 197 242 181 q 133 254 175 213 q 38 400 74 314 q 1 569 1 486 q 26 709 1 639 q 82 796 51 779 z "},"ч":{"ha":654,"x_min":1,"x_max":654,"o":"m 82 796 q 107 804 97 804 q 120 803 111 804 q 135 801 129 801 q 142 794 142 801 q 128 764 142 782 q 100 638 100 724 q 110 551 100 589 q 167 424 125 486 q 247 351 210 363 q 267 349 261 349 q 333 390 297 349 q 421 653 421 486 l 421 667 q 420 685 421 674 q 419 701 419 697 q 431 749 419 739 q 489 769 443 760 q 533 776 518 776 q 549 771 543 776 q 569 761 558 761 q 590 663 590 761 q 614 379 590 592 q 649 139 638 167 q 654 106 654 126 q 619 -7 654 61 q 583 -43 601 -43 q 553 -29 571 -43 q 510 29 532 -11 q 468 181 481 83 q 458 246 461 218 l 456 267 l 426 239 q 288 181 364 181 q 208 197 242 181 q 133 254 175 213 q 38 400 74 314 q 1 569 1 486 q 26 709 1 639 q 82 796 51 779 z "},"Ш":{"ha":917,"x_min":1,"x_max":917,"o":"m 701 881 q 753 889 739 889 q 772 881 768 889 q 792 871 778 874 q 810 844 804 869 q 849 711 817 808 q 900 529 886 596 q 917 340 917 451 q 908 199 917 243 q 868 86 900 154 q 721 -32 813 -32 q 550 54 642 -32 q 432 222 493 110 l 396 289 l 378 246 q 284 100 336 151 q 176 49 232 49 q 40 157 96 49 q 1 324 1 233 q 96 678 4 489 q 145 757 118 724 q 189 790 172 790 q 204 778 204 790 q 188 728 204 765 q 115 388 115 568 q 144 238 115 286 l 157 217 l 181 240 q 249 352 218 276 q 293 518 279 428 q 300 592 300 569 q 296 656 300 614 q 292 722 292 697 q 307 779 292 764 q 369 801 322 794 q 407 806 394 806 q 439 796 419 806 q 466 767 461 785 q 471 678 471 749 q 490 538 471 614 q 625 238 539 351 q 670 190 643 214 q 706 165 697 165 q 726 196 713 165 q 746 253 740 226 q 750 317 750 276 q 733 493 750 418 q 683 668 721 550 q 642 831 642 794 q 655 864 642 854 q 701 881 668 874 z "},"ш":{"ha":917,"x_min":1,"x_max":917,"o":"m 701 881 q 753 889 739 889 q 772 881 768 889 q 792 871 778 874 q 810 844 804 869 q 849 711 817 808 q 900 529 886 596 q 917 340 917 451 q 908 199 917 243 q 868 86 900 154 q 721 -32 813 -32 q 550 54 642 -32 q 432 222 493 110 l 396 289 l 378 246 q 284 100 336 151 q 176 49 232 49 q 40 157 96 49 q 1 324 1 233 q 96 678 4 489 q 145 757 118 724 q 189 790 172 790 q 204 778 204 790 q 188 728 204 765 q 115 388 115 568 q 144 238 115 286 l 157 217 l 181 240 q 249 352 218 276 q 293 518 279 428 q 300 592 300 569 q 296 656 300 614 q 292 722 292 697 q 307 779 292 764 q 369 801 322 794 q 407 806 394 806 q 439 796 419 806 q 466 767 461 785 q 471 678 471 749 q 490 538 471 614 q 625 238 539 351 q 670 190 643 214 q 706 165 697 165 q 726 196 713 165 q 746 253 740 226 q 750 317 750 276 q 733 493 750 418 q 683 668 721 550 q 642 831 642 794 q 655 864 642 854 q 701 881 668 874 z "},"Щ":{"ha":1004,"x_min":0,"x_max":1004,"o":"m 646 950 q 696 958 683 958 q 715 950 708 958 q 733 942 724 942 q 785 858 758 942 q 829 522 829 721 q 826 440 829 496 q 815 322 818 335 q 813 303 813 310 q 814 294 813 296 l 850 303 q 904 311 879 311 q 992 276 961 311 q 1004 224 1004 261 q 986 125 1004 176 q 867 -92 947 17 q 770 -205 822 -150 q 706 -260 718 -260 q 671 -240 696 -260 q 646 -212 646 -219 q 631 -186 646 -208 q 613 -136 615 -162 l 608 -110 l 682 -33 q 835 157 790 79 q 846 183 850 182 q 840 182 844 183 q 803 172 818 176 q 776 159 783 167 q 750 113 768 151 q 629 6 697 6 q 557 32 593 6 q 404 203 469 94 q 383 232 386 232 q 378 224 382 232 q 303 78 335 113 q 219 33 263 33 q 144 63 183 33 q 52 185 92 103 q 3 360 13 268 q 0 406 0 388 q 61 708 0 565 q 90 763 72 736 q 114 790 107 790 q 118 782 118 790 q 113 749 118 769 q 89 522 89 653 q 101 374 89 417 q 147 264 117 317 q 194 211 178 211 q 199 213 197 211 q 234 292 218 229 q 253 435 250 356 q 254 483 254 456 q 235 579 254 519 q 199 746 199 696 q 210 783 199 775 q 268 800 217 789 q 313 806 297 806 q 333 800 324 806 q 356 790 346 790 q 383 744 368 790 q 406 629 397 697 q 471 437 415 554 q 586 249 526 319 q 611 224 606 224 q 649 358 624 224 q 658 519 658 421 q 610 836 658 708 q 588 910 588 896 q 646 950 588 936 z "},"щ":{"ha":1004,"x_min":0,"x_max":1004,"o":"m 646 950 q 696 958 683 958 q 715 950 708 958 q 733 942 724 942 q 785 858 758 942 q 829 522 829 721 q 826 440 829 496 q 815 322 818 335 q 813 303 813 310 q 814 294 813 296 l 850 303 q 904 311 879 311 q 992 276 961 311 q 1004 224 1004 261 q 986 125 1004 176 q 867 -92 947 17 q 770 -205 822 -150 q 706 -260 718 -260 q 671 -240 696 -260 q 646 -212 646 -219 q 631 -186 646 -208 q 613 -136 615 -162 l 608 -110 l 682 -33 q 835 157 790 79 q 846 183 850 182 q 840 182 844 183 q 803 172 818 176 q 776 159 783 167 q 750 113 768 151 q 629 6 697 6 q 557 32 593 6 q 404 203 469 94 q 383 232 386 232 q 378 224 382 232 q 303 78 335 113 q 219 33 263 33 q 144 63 183 33 q 52 185 92 103 q 3 360 13 268 q 0 406 0 388 q 61 708 0 565 q 90 763 72 736 q 114 790 107 790 q 118 782 118 790 q 113 749 118 769 q 89 522 89 653 q 101 374 89 417 q 147 264 117 317 q 194 211 178 211 q 199 213 197 211 q 234 292 218 229 q 253 435 250 356 q 254 483 254 456 q 235 579 254 519 q 199 746 199 696 q 210 783 199 775 q 268 800 217 789 q 313 806 297 806 q 333 800 324 806 q 356 790 346 790 q 383 744 368 790 q 406 629 397 697 q 471 437 415 554 q 586 249 526 319 q 611 224 606 224 q 649 358 624 224 q 658 519 658 421 q 610 836 658 708 q 588 910 588 896 q 646 950 588 936 z "},"Ъ":{"ha":915,"x_min":1,"x_max":914,"o":"m 731 314 q 626 321 717 321 q 589 319 597 321 q 443 289 529 313 l 404 276 l 410 246 q 445 157 421 189 q 504 125 469 125 q 622 178 550 125 q 729 290 694 231 q 731 314 740 310 m 322 874 q 417 925 374 925 q 457 915 438 925 q 482 876 482 906 q 453 714 482 849 q 414 490 414 540 l 415 483 l 418 483 q 471 492 433 483 q 651 515 571 515 l 686 515 q 793 500 764 511 q 903 428 876 467 q 914 381 914 413 l 914 347 q 904 267 913 297 q 869 183 896 238 q 744 28 825 92 q 506 -67 625 -67 l 490 -67 q 418 -52 444 -65 q 354 -1 392 -39 q 257 172 288 65 q 238 208 249 208 l 235 208 l 231 208 q 181 217 215 208 q 140 232 147 226 q 135 253 135 236 q 153 328 135 292 q 204 381 167 357 l 242 406 l 251 482 q 274 622 258 536 q 294 715 290 708 q 256 703 297 719 q 53 647 126 649 q 1 653 1 647 q 54 686 1 658 q 322 874 208 763 z "},"ъ":{"ha":915,"x_min":1,"x_max":914,"o":"m 731 314 q 626 321 717 321 q 589 319 597 321 q 443 289 529 313 l 404 276 l 410 246 q 445 157 421 189 q 504 125 469 125 q 622 178 550 125 q 729 290 694 231 q 731 314 740 310 m 322 874 q 417 925 374 925 q 457 915 438 925 q 482 876 482 906 q 453 714 482 849 q 414 490 414 540 l 415 483 l 418 483 q 471 492 433 483 q 651 515 571 515 l 686 515 q 793 500 764 511 q 903 428 876 467 q 914 381 914 413 l 914 347 q 904 267 913 297 q 869 183 896 238 q 744 28 825 92 q 506 -67 625 -67 l 490 -67 q 418 -52 444 -65 q 354 -1 392 -39 q 257 172 288 65 q 238 208 249 208 l 235 208 l 231 208 q 181 217 215 208 q 140 232 147 226 q 135 253 135 236 q 153 328 135 292 q 204 381 167 357 l 242 406 l 251 482 q 274 622 258 536 q 294 715 290 708 q 256 703 297 719 q 53 647 126 649 q 1 653 1 647 q 54 686 1 658 q 322 874 208 763 z "},"Ы":{"ha":863,"x_min":1,"x_max":863,"o":"m 513 235 q 386 246 483 246 q 229 229 229 246 q 269 185 229 222 q 311 149 297 158 q 351 133 325 140 q 403 125 381 125 q 475 151 439 125 q 516 187 497 167 q 538 218 535 207 q 531 226 539 221 q 513 235 524 232 m 514 800 q 558 815 518 804 q 606 825 597 825 q 632 811 607 825 l 654 799 l 674 706 q 710 545 688 633 q 740 449 733 457 q 768 364 744 444 q 797 271 775 340 q 828 175 819 201 q 863 40 863 71 q 853 -3 863 19 q 835 -29 844 -26 q 831 -31 833 -29 q 743 90 806 -31 l 699 178 l 671 121 q 417 -44 590 -44 q 283 -8 349 -44 q 169 93 218 28 q 106 199 142 131 q 53 318 71 268 q 1 611 1 465 q 32 735 1 714 q 49 743 44 743 q 54 732 54 743 q 53 726 54 731 q 53 718 53 721 l 53 706 q 86 521 53 644 q 135 393 124 393 l 139 394 q 150 398 143 396 q 163 401 157 400 q 399 436 261 436 q 497 434 475 436 q 547 421 518 432 q 601 403 596 403 q 603 406 603 403 q 555 570 603 414 q 507 775 507 726 q 514 800 507 793 z "},"ы":{"ha":863,"x_min":1,"x_max":863,"o":"m 513 235 q 386 246 483 246 q 229 229 229 246 q 269 185 229 222 q 311 149 297 158 q 351 133 325 140 q 403 125 381 125 q 475 151 439 125 q 516 187 497 167 q 538 218 535 207 q 531 226 539 221 q 513 235 524 232 m 514 800 q 558 815 518 804 q 606 825 597 825 q 632 811 607 825 l 654 799 l 674 706 q 710 545 688 633 q 740 449 733 457 q 768 364 744 444 q 797 271 775 340 q 828 175 819 201 q 863 40 863 71 q 853 -3 863 19 q 835 -29 844 -26 q 831 -31 833 -29 q 743 90 806 -31 l 699 178 l 671 121 q 417 -44 590 -44 q 283 -8 349 -44 q 169 93 218 28 q 106 199 142 131 q 53 318 71 268 q 1 611 1 465 q 32 735 1 714 q 49 743 44 743 q 54 732 54 743 q 53 726 54 731 q 53 718 53 721 l 53 706 q 86 521 53 644 q 135 393 124 393 l 139 394 q 150 398 143 396 q 163 401 157 400 q 399 436 261 436 q 497 434 475 436 q 547 421 518 432 q 601 403 596 403 q 603 406 603 403 q 555 570 603 414 q 507 775 507 726 q 514 800 507 793 z "},"Ь":{"ha":717,"x_min":1,"x_max":717,"o":"m 536 296 q 475 299 536 299 q 393 296 407 299 q 306 278 371 293 q 235 260 240 263 q 247 226 226 256 q 288 183 268 196 q 338 168 307 171 q 358 167 346 167 q 406 179 379 167 q 517 264 476 211 q 536 296 536 290 m 85 713 q 106 719 93 719 q 144 678 136 719 q 164 550 151 656 q 181 440 176 446 q 221 446 185 433 q 325 474 256 458 q 490 490 397 490 l 586 490 l 625 471 q 699 418 681 444 q 717 343 717 392 q 669 183 717 271 q 558 56 629 106 q 399 -10 488 6 q 358 -14 378 -14 q 125 157 211 -14 q 90 219 100 210 q 49 231 85 224 q 1 258 1 240 q 6 278 1 265 q 28 332 14 306 q 53 364 43 358 q 63 383 61 368 q 64 474 64 399 q 85 713 64 697 z "},"ь":{"ha":717,"x_min":1,"x_max":717,"o":"m 536 296 q 475 299 536 299 q 393 296 407 299 q 306 278 371 293 q 235 260 240 263 q 247 226 226 256 q 288 183 268 196 q 338 168 307 171 q 358 167 346 167 q 406 179 379 167 q 517 264 476 211 q 536 296 536 290 m 85 713 q 106 719 93 719 q 144 678 136 719 q 164 550 151 656 q 181 440 176 446 q 221 446 185 433 q 325 474 256 458 q 490 490 397 490 l 586 490 l 625 471 q 699 418 681 444 q 717 343 717 392 q 669 183 717 271 q 558 56 629 106 q 399 -10 488 6 q 358 -14 378 -14 q 125 157 211 -14 q 90 219 100 210 q 49 231 85 224 q 1 258 1 240 q 6 278 1 265 q 28 332 14 306 q 53 364 43 358 q 63 383 61 368 q 64 474 64 399 q 85 713 64 697 z "},"Э":{"ha":885,"x_min":1,"x_max":885,"o":"m 94 653 q 461 749 254 749 q 619 728 544 749 q 711 688 660 717 q 793 632 763 660 q 882 454 871 560 q 885 411 885 426 q 845 217 885 315 q 739 51 806 118 q 638 -24 690 3 q 425 -74 538 -74 q 221 -36 325 -74 q 106 21 147 -10 q 38 103 65 51 q 8 185 8 154 q 100 254 8 236 q 132 258 124 258 q 158 250 142 258 q 177 236 174 242 q 181 215 181 231 q 197 181 181 193 q 263 151 214 168 q 444 119 363 119 q 528 132 494 119 q 600 171 561 144 q 657 219 639 197 q 672 239 667 232 q 676 246 678 246 q 539 279 614 261 q 392 318 414 310 q 373 338 383 322 q 363 363 363 354 q 535 388 363 381 q 706 397 629 390 l 736 400 l 736 433 q 688 538 736 493 q 358 638 576 638 q 168 614 265 638 q 32 556 63 586 q 18 548 25 550 q 6 549 11 546 q 1 558 1 551 q 35 602 1 568 q 94 653 68 636 z "},"э":{"ha":885,"x_min":1,"x_max":885,"o":"m 94 653 q 461 749 254 749 q 619 728 544 749 q 711 688 660 717 q 793 632 763 660 q 882 454 871 560 q 885 411 885 426 q 845 217 885 315 q 739 51 806 118 q 638 -24 690 3 q 425 -74 538 -74 q 221 -36 325 -74 q 106 21 147 -10 q 38 103 65 51 q 8 185 8 154 q 100 254 8 236 q 132 258 124 258 q 158 250 142 258 q 177 236 174 242 q 181 215 181 231 q 197 181 181 193 q 263 151 214 168 q 444 119 363 119 q 528 132 494 119 q 600 171 561 144 q 657 219 639 197 q 672 239 667 232 q 676 246 678 246 q 539 279 614 261 q 392 318 414 310 q 373 338 383 322 q 363 363 363 354 q 535 388 363 381 q 706 397 629 390 l 736 400 l 736 433 q 688 538 736 493 q 358 638 576 638 q 168 614 265 638 q 32 556 63 586 q 18 548 25 550 q 6 549 11 546 q 1 558 1 551 q 35 602 1 568 q 94 653 68 636 z "},"Ю":{"ha":1165,"x_min":1,"x_max":1165,"o":"m 864 621 q 804 626 825 626 q 596 574 710 626 q 525 556 556 556 q 493 558 504 556 l 469 563 l 450 529 q 422 465 435 504 q 410 404 410 426 q 421 385 410 389 q 431 375 429 382 q 432 342 432 368 q 486 236 432 290 q 671 165 557 165 q 892 279 779 165 q 1004 515 1004 394 q 1001 553 1004 544 q 985 574 999 561 q 864 621 946 608 m 739 807 q 835 813 779 813 q 931 804 900 813 q 1092 717 1018 782 q 1144 647 1125 685 l 1165 607 l 1164 519 q 1149 388 1164 432 q 789 4 1039 72 q 676 -7 751 -7 q 572 4 601 -7 q 361 167 431 53 q 342 194 343 194 q 294 173 336 194 q 251 149 251 151 q 264 118 251 143 q 274 79 274 100 q 246 -7 274 56 q 210 -49 228 -49 q 157 -14 192 -49 q 89 81 119 24 q 49 196 49 156 q 72 260 49 228 l 90 285 l 51 446 q 1 685 1 657 l 1 696 q 6 713 3 710 q 17 717 8 717 q 32 706 25 717 q 54 656 39 694 q 126 465 107 515 l 176 336 l 232 363 q 289 388 288 388 q 299 429 294 407 q 335 531 306 471 q 417 642 364 589 q 597 769 501 726 q 739 807 661 799 z "},"ю":{"ha":1165,"x_min":1,"x_max":1165,"o":"m 864 621 q 804 626 825 626 q 596 574 710 626 q 525 556 556 556 q 493 558 504 556 l 469 563 l 450 529 q 422 465 435 504 q 410 404 410 426 q 421 385 410 389 q 431 375 429 382 q 432 342 432 368 q 486 236 432 290 q 671 165 557 165 q 892 279 779 165 q 1004 515 1004 394 q 1001 553 1004 544 q 985 574 999 561 q 864 621 946 608 m 739 807 q 835 813 779 813 q 931 804 900 813 q 1092 717 1018 782 q 1144 647 1125 685 l 1165 607 l 1164 519 q 1149 388 1164 432 q 789 4 1039 72 q 676 -7 751 -7 q 572 4 601 -7 q 361 167 431 53 q 342 194 343 194 q 294 173 336 194 q 251 149 251 151 q 264 118 251 143 q 274 79 274 100 q 246 -7 274 56 q 210 -49 228 -49 q 157 -14 192 -49 q 89 81 119 24 q 49 196 49 156 q 72 260 49 228 l 90 285 l 51 446 q 1 685 1 657 l 1 696 q 6 713 3 710 q 17 717 8 717 q 32 706 25 717 q 54 656 39 694 q 126 465 107 515 l 176 336 l 232 363 q 289 388 288 388 q 299 429 294 407 q 335 531 306 471 q 417 642 364 589 q 597 769 501 726 q 739 807 661 799 z "},"Я":{"ha":806,"x_min":1,"x_max":806,"o":"m 310 903 q 364 906 324 906 q 447 899 422 906 q 593 817 524 879 q 706 669 663 756 q 778 448 751 578 q 806 189 806 318 q 805 168 806 182 q 804 147 804 154 q 790 38 800 38 q 786 43 788 38 q 760 168 782 57 q 621 582 701 460 q 381 735 521 735 q 267 708 324 735 q 199 667 231 693 q 167 624 167 642 q 194 562 167 599 q 251 510 221 525 q 388 478 299 485 q 417 476 397 476 q 514 490 444 476 q 590 503 581 503 q 607 497 601 503 q 626 486 618 486 q 647 451 647 486 q 635 396 647 428 q 602 327 613 344 q 567 289 592 310 q 299 39 500 231 q 169 -74 182 -74 q 112 -27 146 -74 q 72 60 78 19 q 72 67 72 63 q 71 72 71 71 q 89 103 71 86 q 110 123 93 107 q 152 164 126 139 q 199 208 178 189 l 288 293 l 257 303 q 93 410 164 332 q 47 481 74 431 q 10 563 19 532 q 1 625 1 590 q 21 724 1 681 q 76 797 38 758 q 151 854 115 835 q 226 882 175 867 q 310 903 276 897 z "},"я":{"ha":806,"x_min":1,"x_max":806,"o":"m 310 903 q 364 906 324 906 q 447 899 422 906 q 593 817 524 879 q 706 669 663 756 q 778 448 751 578 q 806 189 806 318 q 805 168 806 182 q 804 147 804 154 q 790 38 800 38 q 786 43 788 38 q 760 168 782 57 q 621 582 701 460 q 381 735 521 735 q 267 708 324 735 q 199 667 231 693 q 167 624 167 642 q 194 562 167 599 q 251 510 221 525 q 388 478 299 485 q 417 476 397 476 q 514 490 444 476 q 590 503 581 503 q 607 497 601 503 q 626 486 618 486 q 647 451 647 486 q 635 396 647 428 q 602 327 613 344 q 567 289 592 310 q 299 39 500 231 q 169 -74 182 -74 q 112 -27 146 -74 q 72 60 78 19 q 72 67 72 63 q 71 72 71 71 q 89 103 71 86 q 110 123 93 107 q 152 164 126 139 q 199 208 178 189 l 288 293 l 257 303 q 93 410 164 332 q 47 481 74 431 q 10 563 19 532 q 1 625 1 590 q 21 724 1 681 q 76 797 38 758 q 151 854 115 835 q 226 882 175 867 q 310 903 276 897 z "},"Ґ":{"ha":924,"x_min":1,"x_max":924,"o":"m 754 1026 q 818 1035 801 1035 q 874 1018 838 1035 q 917 989 911 1001 q 924 950 924 978 q 911 876 924 910 q 818 701 879 783 q 568 419 757 619 q 418 260 432 275 q 401 238 399 239 q 414 242 403 238 q 533 303 446 253 q 685 399 619 354 q 778 443 738 435 q 817 449 804 449 q 842 442 828 449 q 867 408 867 431 q 864 379 867 404 q 836 303 858 343 q 788 240 814 263 q 529 81 694 161 q 281 -7 364 0 l 243 -11 l 213 15 q 158 83 181 42 q 136 157 136 125 q 192 283 136 210 q 460 581 249 356 q 669 813 669 801 l 668 813 q 475 725 644 813 q 153 538 364 668 q 88 510 111 510 q 56 522 69 510 q 19 570 38 535 q 1 626 1 606 q 44 774 1 647 q 108 944 92 911 q 146 976 124 976 l 151 976 q 157 967 157 976 q 139 831 157 953 q 124 726 124 733 l 125 726 q 183 760 133 726 q 754 1026 514 983 z "},"ґ":{"ha":924,"x_min":1,"x_max":924,"o":"m 754 1026 q 818 1035 801 1035 q 874 1018 838 1035 q 917 989 911 1001 q 924 950 924 978 q 911 876 924 910 q 818 701 879 783 q 568 419 757 619 q 418 260 432 275 q 401 238 399 239 q 414 242 403 238 q 533 303 446 253 q 685 399 619 354 q 778 443 738 435 q 817 449 804 449 q 842 442 828 449 q 867 408 867 431 q 864 379 867 404 q 836 303 858 343 q 788 240 814 263 q 529 81 694 161 q 281 -7 364 0 l 243 -11 l 213 15 q 158 83 181 42 q 136 157 136 125 q 192 283 136 210 q 460 581 249 356 q 669 813 669 801 l 668 813 q 475 725 644 813 q 153 538 364 668 q 88 510 111 510 q 56 522 69 510 q 19 570 38 535 q 1 626 1 606 q 44 774 1 647 q 108 944 92 911 q 146 976 124 976 l 151 976 q 157 967 157 976 q 139 831 157 953 q 124 726 124 733 l 125 726 q 183 760 133 726 q 754 1026 514 983 z "},"‘":{"ha":269,"x_min":1,"x_max":269,"o":"m 182 983 q 221 988 203 988 q 256 982 243 988 q 269 953 269 975 q 213 825 269 910 q 150 724 171 761 q 31 551 49 551 q 10 566 19 551 q 1 597 1 581 q 34 708 1 613 q 94 871 67 804 q 182 983 138 974 z "},"’":{"ha":189,"x_min":1,"x_max":190,"o":"m 138 964 q 174 983 157 983 q 188 980 186 983 q 188 961 190 976 q 163 863 186 953 q 133 738 139 774 q 82 601 110 618 q 75 600 81 600 q 19 654 53 600 q 1 707 1 685 q 18 761 1 728 q 83 881 43 813 q 138 964 124 949 z "},"“":{"ha":410,"x_min":1,"x_max":410,"o":"m 182 894 q 211 900 193 903 q 233 882 233 899 q 199 769 233 868 q 158 635 165 679 q 133 556 154 600 q 97 506 113 513 q 82 501 89 501 q 47 526 68 501 q 17 572 33 539 q 1 617 1 606 q 86 755 1 625 q 182 894 171 885 m 369 863 q 406 890 393 890 q 410 885 410 890 q 340 690 410 878 q 311 592 311 613 q 288 517 311 579 q 251 482 274 482 q 188 549 219 482 q 172 597 172 579 q 194 636 172 617 q 278 743 215 654 q 369 863 343 833 z "},"”":{"ha":472,"x_min":1,"x_max":472,"o":"m 174 903 q 219 910 194 910 q 274 868 274 910 q 258 807 274 844 q 226 760 242 769 q 185 707 215 751 q 147 646 154 663 q 82 535 142 629 q 15 438 22 440 l 11 438 q 1 453 1 438 q 40 589 1 472 q 80 710 64 654 q 119 825 96 765 l 147 894 l 174 903 m 371 881 q 421 888 396 888 q 472 853 472 888 q 455 794 472 835 q 425 742 438 753 q 308 610 413 729 q 157 450 172 450 q 156 453 156 450 q 178 508 156 461 q 336 846 321 799 q 349 870 343 864 q 371 881 356 876 z "}}}
